<svg width="572" height="572" viewBox="0 0 572 572" fill="none" xmlns="http://www.w3.org/2000/svg">
<path d="M302.039 557.815C427.012 557.815 528.322 499.323 528.322 427.17C528.322 355.017 427.012 296.525 302.039 296.525C177.066 296.525 75.7559 355.017 75.7559 427.17C75.7559 499.323 177.066 557.815 302.039 557.815Z" fill="#F5F5F5"/>
<path d="M483.901 458.881C512.781 458.881 536.193 445.365 536.193 428.691C536.193 412.018 512.781 398.501 483.901 398.501C455.02 398.501 431.608 412.018 431.608 428.691C431.608 445.365 455.02 458.881 483.901 458.881Z" fill="#E0E0E0"/>
<path d="M325.113 345.168L263.509 380.735L340.649 425.374L402.253 389.704L325.113 345.168Z" fill="#E0E0E0"/>
<path d="M89.7467 464.578C100.649 470.951 100.649 481.269 89.7467 487.63C78.8444 493.991 61.1467 493.991 50.2673 487.63C39.3878 481.269 39.3649 470.951 50.2673 464.578C61.1696 458.206 78.8444 458.218 89.7467 464.578Z" fill="#E0E0E0"/>
<path d="M278.793 63.8691V351.048L105.294 451.205V164.05L278.793 63.8691Z" fill="#FFC554"/>
<path opacity="0.25" d="M278.793 63.8691V351.048L105.294 451.205V164.05L278.793 63.8691Z" fill="black"/>
<path opacity="0.15" d="M278.793 63.8691L235.653 88.5566L235.641 326.12L278.793 351.048V63.8691Z" fill="black"/>
<path d="M235.641 326.12L284.639 354.4L105.294 457.955V250.902L235.641 326.12Z" fill="#FFC554"/>
<path opacity="0.8" d="M235.641 326.12L284.639 354.4L105.294 457.955V250.902L235.641 326.12Z" fill="white"/>
<path opacity="0.1" d="M117.924 409.964L171.886 441.115L269.023 385.036L215.061 353.885L117.924 409.964Z" fill="black"/>
<path d="M120.257 404.884L172.55 435.075L266.689 380.735L214.397 350.533L120.257 404.884Z" fill="#FFC554"/>
<path opacity="0.1" d="M120.257 404.884L172.55 435.075L266.689 380.735L214.397 350.533L120.257 404.884Z" fill="black"/>
<path d="M120.257 404.884V407.618L172.55 437.82V435.074L120.257 404.884Z" fill="#FFC554"/>
<path opacity="0.35" d="M120.257 404.884V407.618L172.55 437.82V435.074L120.257 404.884Z" fill="black"/>
<path d="M172.55 435.075L266.689 380.735V383.469L172.55 437.82V435.075Z" fill="#FFC554"/>
<path opacity="0.2" d="M172.55 435.075L266.689 380.735V383.469L172.55 437.82V435.075Z" fill="black"/>
<path d="M161.579 410.913L157.083 407.104C156.945 406.989 156.9 406.886 156.934 406.795C156.973 406.69 157.051 406.604 157.151 406.555L159.302 405.308C159.413 405.255 159.534 405.227 159.657 405.228C159.785 405.225 159.911 405.257 160.023 405.319C160.064 405.341 160.103 405.368 160.137 405.399L168.385 412.606C168.45 412.65 168.5 412.71 168.53 412.781C168.561 412.852 168.57 412.931 168.557 413.007C168.533 413.102 168.487 413.191 168.424 413.266C168.36 413.342 168.281 413.401 168.191 413.442L166.83 414.231C166.607 414.36 166.354 414.428 166.097 414.425C165.858 414.43 165.62 414.403 165.388 414.345L160.446 412.915L162.928 415.764C163.021 415.881 163.069 416.027 163.066 416.176C163.066 416.336 162.94 416.473 162.723 416.599L161.361 417.388C161.13 417.518 160.871 417.589 160.606 417.594C160.372 417.613 160.138 417.578 159.92 417.491L147.439 412.732L147.29 412.664C147.247 412.649 147.21 412.621 147.183 412.585C147.156 412.548 147.142 412.503 147.142 412.458C147.142 412.412 147.156 412.368 147.183 412.331C147.21 412.294 147.247 412.266 147.29 412.252L149.441 411.005C149.569 410.937 149.709 410.895 149.853 410.879C150.037 410.866 150.221 410.897 150.39 410.971L156.98 413.567L154.978 411.279C154.916 411.205 154.869 411.12 154.84 411.028C154.84 410.913 154.84 410.799 155.069 410.685L156.602 409.792C156.779 409.681 156.99 409.636 157.197 409.666C157.348 409.679 157.497 409.706 157.643 409.746L161.579 410.913Z" fill="#FAFAFA"/>
<path d="M178.35 404.541C178.486 404.467 178.64 404.431 178.796 404.438C178.947 404.433 179.097 404.469 179.23 404.541L180.969 405.548C181.022 405.567 181.067 405.603 181.099 405.649C181.131 405.695 181.148 405.749 181.148 405.805C181.148 405.861 181.131 405.916 181.099 405.962C181.067 406.008 181.022 406.043 180.969 406.063L173.202 410.559C173.064 410.63 172.91 410.666 172.755 410.662C172.599 410.669 172.443 410.629 172.309 410.547L161.716 404.438C161.663 404.416 161.618 404.38 161.586 404.333C161.553 404.287 161.535 404.232 161.533 404.175C161.535 404.121 161.552 404.069 161.582 404.024C161.613 403.98 161.655 403.945 161.704 403.923L169.358 399.508C169.494 399.433 169.649 399.398 169.804 399.405C169.955 399.399 170.106 399.435 170.239 399.508L171.978 400.514C172.031 400.531 172.079 400.564 172.112 400.609C172.146 400.655 172.164 400.71 172.164 400.766C172.164 400.822 172.146 400.877 172.112 400.923C172.079 400.968 172.031 401.001 171.978 401.018L166.932 403.935L168.706 404.964L173.396 402.253C173.529 402.181 173.679 402.145 173.831 402.15C173.986 402.143 174.14 402.179 174.277 402.253L176.016 403.26C176.067 403.28 176.112 403.314 176.145 403.359C176.177 403.403 176.196 403.456 176.199 403.512C176.199 403.615 176.142 403.695 176.016 403.775L171.325 406.475L173.167 407.538L178.35 404.541Z" fill="#FAFAFA"/>
<path d="M188.76 398.558C188.899 398.49 189.052 398.455 189.206 398.455C189.361 398.455 189.513 398.49 189.652 398.558L191.391 399.565C191.441 399.587 191.485 399.622 191.517 399.666C191.549 399.71 191.569 399.762 191.574 399.816C191.57 399.872 191.55 399.926 191.518 399.973C191.486 400.019 191.442 400.056 191.391 400.08L183.795 404.461C183.656 404.529 183.503 404.564 183.349 404.564C183.194 404.564 183.042 404.529 182.903 404.461L172.309 398.341C172.258 398.321 172.213 398.287 172.181 398.242C172.148 398.197 172.129 398.144 172.126 398.089C172.126 397.986 172.183 397.906 172.309 397.826L174.46 396.59C174.593 396.518 174.743 396.482 174.895 396.487C175.05 396.481 175.204 396.516 175.341 396.59L183.761 401.452L188.76 398.558Z" fill="#FAFAFA"/>
<path d="M188.554 393.467L189.126 393.822L189.893 394.268L190.682 394.726L191.311 395.057C191.593 395.189 191.883 395.299 192.181 395.389C192.497 395.476 192.824 395.523 193.153 395.526C193.503 395.533 193.853 395.494 194.194 395.412C194.574 395.311 194.939 395.161 195.281 394.966C195.58 394.811 195.848 394.602 196.07 394.348C196.2 394.2 196.294 394.024 196.345 393.833C196.371 393.681 196.347 393.524 196.276 393.387C196.215 393.257 196.134 393.137 196.036 393.033C195.944 392.946 195.88 392.835 195.853 392.712C195.853 392.632 195.933 392.541 196.116 392.426L198.267 391.191C198.378 391.128 198.505 391.097 198.633 391.099C198.757 391.096 198.88 391.128 198.987 391.191C199.465 391.461 199.861 391.857 200.131 392.335C200.359 392.75 200.428 393.234 200.326 393.696C200.205 394.231 199.944 394.724 199.571 395.126C199.091 395.669 198.523 396.125 197.889 396.476C197.114 396.924 196.283 397.266 195.418 397.494C194.587 397.707 193.736 397.826 192.878 397.849C192.063 397.874 191.248 397.793 190.453 397.609C189.717 397.453 189.005 397.199 188.337 396.853C187.868 396.613 187.376 396.339 186.861 396.041C186.346 395.744 185.866 395.458 185.408 395.172C184.888 394.862 184.439 394.444 184.092 393.948C183.807 393.54 183.662 393.05 183.681 392.552C183.739 392.008 183.958 391.495 184.31 391.076C184.804 390.498 185.401 390.017 186.072 389.658C186.791 389.236 187.559 388.906 188.36 388.674C189.167 388.446 189.994 388.3 190.831 388.239C191.622 388.184 192.417 388.223 193.199 388.354C193.892 388.465 194.561 388.693 195.178 389.028C195.219 389.045 195.255 389.074 195.282 389.11C195.308 389.147 195.323 389.19 195.327 389.234C195.326 389.281 195.311 389.327 195.285 389.365C195.258 389.404 195.221 389.434 195.178 389.452L193.027 390.687C192.883 390.78 192.718 390.835 192.547 390.847C192.36 390.828 192.176 390.79 191.998 390.733L191.38 390.596C191.125 390.566 190.868 390.566 190.613 390.596C190.303 390.614 189.996 390.668 189.698 390.756C189.33 390.859 188.976 391.009 188.646 391.202C188.348 391.359 188.084 391.573 187.868 391.831C187.731 392.003 187.658 392.218 187.662 392.438C187.679 392.648 187.767 392.846 187.913 392.998C188.106 393.181 188.322 393.339 188.554 393.467Z" fill="#FAFAFA"/>
<path d="M196.974 388.514C196.452 388.196 196.001 387.776 195.647 387.278C195.351 386.876 195.205 386.382 195.235 385.883C195.292 385.348 195.507 384.842 195.853 384.43C196.357 383.842 196.966 383.353 197.649 382.988C198.425 382.532 199.26 382.186 200.131 381.959C200.961 381.738 201.813 381.615 202.671 381.593C203.479 381.568 204.286 381.649 205.073 381.833C205.816 381.996 206.535 382.254 207.213 382.599C207.705 382.863 208.208 383.137 208.723 383.435C209.238 383.732 209.707 384.018 210.13 384.281C210.649 384.602 211.1 385.022 211.457 385.517C211.751 385.921 211.9 386.413 211.88 386.912C211.823 387.453 211.604 387.963 211.251 388.377C210.744 388.958 210.135 389.443 209.455 389.807C208.677 390.262 207.843 390.613 206.972 390.848C206.147 391.066 205.298 391.185 204.444 391.202C203.633 391.222 202.822 391.141 202.03 390.962C201.288 390.798 200.569 390.541 199.891 390.196C199.422 389.944 198.93 389.681 198.415 389.383C197.901 389.086 197.42 388.788 196.974 388.514ZM207.064 385.986L206.435 385.597L205.714 385.151L204.97 384.739L204.307 384.395C204.009 384.256 203.699 384.145 203.38 384.064C203.055 383.982 202.721 383.94 202.385 383.938C202.034 383.939 201.684 383.985 201.344 384.075C200.984 384.172 200.638 384.314 200.314 384.498C200.032 384.65 199.78 384.851 199.571 385.093C199.436 385.267 199.36 385.48 199.353 385.7C199.35 385.907 199.419 386.109 199.548 386.272C199.709 386.48 199.907 386.659 200.131 386.798C200.303 386.924 200.497 387.05 200.726 387.187L201.447 387.622L202.191 388.045L202.888 388.399C203.494 388.686 204.152 388.842 204.822 388.857C205.547 388.863 206.259 388.669 206.881 388.297C207.556 387.896 207.876 387.507 207.842 387.153C207.812 386.911 207.726 386.68 207.591 386.477C207.456 386.275 207.275 386.106 207.064 385.986Z" fill="#FAFAFA"/>
<path d="M218.241 381.204H217.749L213.493 380.529L218.927 383.663C218.977 383.685 219.021 383.72 219.053 383.764C219.085 383.809 219.105 383.861 219.11 383.915C219.106 383.971 219.086 384.025 219.054 384.071C219.022 384.117 218.978 384.154 218.927 384.178L216.777 385.414C216.639 385.486 216.486 385.522 216.33 385.517C216.179 385.522 216.029 385.486 215.896 385.414L205.291 379.293C205.241 379.271 205.197 379.236 205.165 379.192C205.133 379.148 205.113 379.096 205.108 379.041C205.108 378.939 205.165 378.858 205.291 378.778L207.19 377.634C207.393 377.512 207.628 377.453 207.865 377.463H208.345L215.541 378.55L213.665 374.397C213.633 374.308 213.614 374.216 213.608 374.122C213.608 373.985 213.699 373.859 213.917 373.733L215.827 372.589C215.96 372.517 216.11 372.481 216.262 372.486C216.417 372.48 216.571 372.515 216.708 372.589L227.313 378.71C227.427 378.778 227.496 378.858 227.484 378.961C227.473 379.064 227.484 379.144 227.313 379.213L225.162 380.46C225.025 380.532 224.871 380.567 224.716 380.563C224.564 380.568 224.414 380.533 224.281 380.46L218.847 377.325L219.991 379.774C220.003 379.869 220.003 379.965 219.991 380.06C219.991 380.174 219.911 380.266 219.74 380.369L218.698 380.975C218.565 381.085 218.409 381.163 218.241 381.204Z" fill="#FAFAFA"/>
<path d="M235.664 371.468C235.797 371.396 235.947 371.36 236.099 371.365C236.254 371.361 236.407 371.397 236.545 371.468L238.284 372.475C238.335 372.495 238.38 372.529 238.412 372.574C238.445 372.618 238.464 372.671 238.467 372.727C238.461 372.781 238.441 372.833 238.409 372.877C238.377 372.921 238.334 372.956 238.284 372.978L230.505 377.474C230.368 377.548 230.214 377.584 230.058 377.577C229.907 377.582 229.757 377.547 229.624 377.474L219.019 371.354C218.968 371.33 218.924 371.293 218.892 371.247C218.86 371.201 218.84 371.147 218.836 371.091C218.84 371.036 218.859 370.983 218.892 370.939C218.924 370.895 218.968 370.86 219.019 370.839L226.661 366.423C226.798 366.352 226.952 366.316 227.107 366.32C227.262 366.315 227.416 366.351 227.553 366.423L229.292 367.43C229.344 367.449 229.39 367.484 229.422 367.531C229.454 367.577 229.471 367.631 229.471 367.687C229.471 367.743 229.454 367.798 229.422 367.844C229.39 367.89 229.344 367.925 229.292 367.945L224.224 370.862L225.997 371.88L230.688 369.169C230.827 369.101 230.979 369.066 231.134 369.066C231.288 369.066 231.441 369.101 231.58 369.169L233.319 370.175C233.371 370.195 233.417 370.23 233.449 370.276C233.481 370.322 233.498 370.377 233.498 370.433C233.498 370.489 233.481 370.544 233.449 370.59C233.417 370.636 233.371 370.671 233.319 370.69L228.628 373.402L230.459 374.454L235.664 371.468Z" fill="#FAFAFA"/>
<path d="M209.787 239.096C207.499 239.668 202.03 240.755 202.03 240.755C202.03 240.755 204.97 237.014 203.769 236.179C202.568 235.344 201.722 237.929 198.267 239.348C194.812 240.766 193.462 242.562 191.334 242.585L165.022 242.951C165.022 242.951 146.718 221.055 143.698 218.836C142.579 217.923 141.276 217.263 139.878 216.901C138.479 216.54 137.019 216.486 135.598 216.742L139.293 236.19L154.44 251.28C157.964 254.78 159.336 255.981 164.038 255.741C169.381 255.467 182.914 253.35 190.716 252.069C195.841 251.646 197.58 251.852 201.161 251.245C205.016 250.605 209.077 250.593 211.777 245.708C214.9 240.034 213.184 238.272 209.787 239.096Z" fill="#FFBE9D"/>
<path d="M158.947 133.779V370.439L235.641 326.12V89.5176L158.947 133.779Z" fill="#455A64"/>
<path d="M161.979 243.329C162.029 242.382 162.301 241.461 162.774 240.64C163.248 239.819 163.908 239.122 164.702 238.604C166.212 237.735 167.424 238.444 167.424 240.183C167.349 241.616 166.765 242.974 165.777 244.015V246.303C165.758 246.624 165.665 246.936 165.504 247.214C165.343 247.492 165.119 247.729 164.85 247.905L164.53 248.088C164.027 248.385 163.615 248.088 163.615 247.55V245.262C162.654 245.342 161.979 244.621 161.979 243.329Z" fill="#263238"/>
<path d="M189.309 127.579L169.735 138.882V228.708L189.309 217.406V127.579Z" fill="#FFC554"/>
<path opacity="0.3" d="M189.309 127.579L169.735 138.882V228.708L189.309 217.406V127.579Z" fill="black"/>
<path d="M221.742 108.817L202.156 120.12V209.947L221.742 198.644V108.817Z" fill="#FFC554"/>
<path opacity="0.3" d="M221.742 108.817L202.156 120.12V209.947L221.742 198.644V108.817Z" fill="black"/>
<path d="M189.309 217.406L192.409 219.19L169.735 232.289V228.708L189.309 217.406Z" fill="#263238"/>
<path d="M221.742 198.644L224.842 200.44L202.168 213.528L199.067 211.732L221.742 198.644Z" fill="#263238"/>
<path d="M221.742 198.644V108.783L224.853 106.987L224.842 200.429L221.742 198.644Z" fill="#37474F"/>
<path d="M192.409 219.19L202.168 213.527V120.12L192.409 125.783V219.19Z" fill="#455A64"/>
<path d="M192.409 219.19L189.309 217.406V127.579L192.409 125.783V219.19Z" fill="#37474F"/>
<path opacity="0.1" d="M192.409 234.097L169.735 247.184V347.73L192.409 334.631V234.097Z" fill="black"/>
<path d="M190.224 241.327L174.746 250.261V338.853L190.224 329.918V241.327Z" fill="#455A64"/>
<path d="M169.735 247.184L174.746 250.261V338.853L169.735 347.73V247.184Z" fill="#37474F"/>
<path d="M192.409 234.097L190.224 241.327V329.918L192.409 334.631V234.097Z" fill="#37474F"/>
<path d="M192.409 334.631L190.224 329.918L174.746 338.853L169.735 347.73L192.409 334.631Z" fill="#263238"/>
<path opacity="0.1" d="M224.853 215.324L202.168 228.423V328.969L224.853 315.87V215.324Z" fill="black"/>
<path d="M222.668 222.565L207.19 231.5V320.091L222.668 311.156V222.565Z" fill="#455A64"/>
<path d="M202.168 228.422L207.19 231.5V320.091L202.168 328.969V228.422Z" fill="#37474F"/>
<path d="M224.853 215.324L222.668 222.565V311.157L224.853 315.87V215.324Z" fill="#37474F"/>
<path d="M224.853 315.87L222.668 311.156L207.19 320.091L202.168 328.969L224.853 315.87Z" fill="#263238"/>
<path d="M155.618 368.585L158.947 370.439V133.779L155.618 135.667V368.585Z" fill="#263238"/>
<path opacity="0.1" d="M235.641 88.5566V115.269L105.294 190.762V164.05L235.641 88.5566Z" fill="black"/>
<path opacity="0.1" d="M131.114 420.695C137.291 421.564 142.554 424.813 148.514 426.071C152.427 426.884 156.636 427.134 160.252 425.407C161.396 424.846 163.134 423.635 163.523 422.388C164.118 420.5 162.631 418.956 161.43 417.812C159.938 416.427 158.368 415.128 156.728 413.922C153.299 411.618 149.574 409.791 145.654 408.488C142.222 407.218 138.79 406.051 135.278 405.056C132.021 404.29 128.701 403.818 125.36 403.648C117.806 402.797 110.161 403.333 102.8 405.228C95.6839 407.207 89.0716 409.117 83.8435 414.711C81.9682 416.495 80.7235 418.84 80.2972 421.392C80.233 422.817 80.4755 424.238 81.0085 425.56C81.5414 426.883 82.3521 428.075 83.3859 429.057C84.9749 430.782 86.9046 432.159 89.0529 433.1C91.2012 434.042 93.5215 434.527 95.867 434.525C97.5232 434.501 99.1573 434.141 100.671 433.469C102.185 432.797 103.547 431.825 104.676 430.613C106.895 428.096 108.6 425.155 111.54 423.325C117.191 419.778 124.696 419.848 131.114 420.695Z" fill="black"/>
<path d="M118.656 210.61C118.461 212.773 118.782 215.049 115.006 216.628C115.006 216.628 116.905 222.142 112.501 223.972C112.501 223.972 114 229.143 110.339 230.836C110.683 231.915 110.674 233.076 110.314 234.149C109.954 235.223 109.261 236.154 108.337 236.808C109.066 237.808 109.452 239.018 109.435 240.255C109.419 241.493 109.001 242.692 108.245 243.672C108.657 243.99 108.993 244.394 109.231 244.857C109.468 245.32 109.6 245.829 109.618 246.349C109.778 248.271 108.932 250.57 107.056 251.005C107.392 250.596 107.576 250.082 107.576 249.552C107.576 249.022 107.392 248.509 107.056 248.099C105.843 246.715 105.305 244.976 106.598 243.706C106.598 243.706 102.113 242.345 104.71 237.105C104.189 236.614 103.793 236.003 103.558 235.327C103.322 234.65 103.253 233.926 103.356 233.217C103.459 232.507 103.732 231.833 104.151 231.252C104.57 230.67 105.123 230.198 105.763 229.875C105.763 229.875 103.349 224.453 107.879 222.474C107.879 222.474 105.237 219.316 108.714 215.61C108.714 215.61 105.408 210.015 112.364 205.199L118.656 210.61Z" fill="#263238"/>
<path d="M144.201 401.006C144.445 400.554 144.563 400.044 144.544 399.53C144.539 398.973 144.562 398.415 144.613 397.86C144.888 393.627 148.251 353.439 149.086 344.207C150.493 328.705 150.562 287.258 147.45 273.908L105.74 277.214C102.754 284.73 100.58 293.974 101.084 308.48C101.461 319.542 101.29 349.549 101.29 349.549C97.524 353.259 94.5846 357.723 92.6641 362.648C89.4952 370.347 87.1157 388.96 85.3654 396.465C85.0336 397.883 84.6561 399.897 84.6561 399.897C83.756 401.153 83.2575 402.653 83.2261 404.198C83.2406 408.795 83.7391 413.377 84.7133 417.869C84.9499 418.964 85.471 419.977 86.2242 420.807C86.9774 421.636 87.936 422.253 89.0033 422.594C89.5133 422.805 90.0655 422.895 90.6163 422.857C90.9064 422.854 91.1861 422.749 91.4057 422.559C91.7947 422.17 91.4057 421.244 91.4057 420.775C91.2813 420.018 91.2087 419.253 91.1883 418.487C91.1883 416.988 91.1883 415.169 91.2799 413.67C91.4645 410.348 91.9819 407.052 92.8243 403.832L93.6251 401.921C93.6251 401.921 111.471 365.691 116.505 356.848C120.532 349.927 124.627 323.02 127.464 308.319L132.407 343.417C131.208 347.069 130.32 350.816 129.752 354.617C129.02 361.126 132.75 386.214 134.145 395.286C134.349 396.614 134.422 397.959 134.363 399.302C134.295 399.707 134.295 400.121 134.363 400.526C134.533 400.944 134.824 401.302 135.198 401.555C135.953 401.929 136.747 402.217 137.566 402.413C138.685 402.71 139.85 402.788 140.998 402.642C141.433 402.574 141.845 402.425 142.279 402.345C142.773 402.247 143.232 402.018 143.606 401.681C143.846 401.497 144.048 401.267 144.201 401.006Z" fill="#FFBE9D"/>
<path d="M97.1715 431.162H96.8511C94.0524 431.517 91.2097 431.256 88.5228 430.396C86.1337 429.617 83.9888 428.229 82.2995 426.369C81.6345 425.46 81.1349 424.442 80.8237 423.36C80.4767 422.238 80.2166 421.09 80.0458 419.928C79.3365 416.233 80.3318 415.192 79.2221 411.554C78.7155 410.288 78.2988 408.989 77.9751 407.664C78.1572 406.983 78.4807 406.348 78.9247 405.8L83.5007 412.206L86.5323 416.462L88.1453 418.75C88.4999 419.253 88.7745 419.894 89.1749 420.374C89.7916 420.938 90.4848 421.412 91.2341 421.781C91.9777 422.25 92.7442 422.696 93.5221 423.108C95.0447 423.933 96.6147 424.666 98.2239 425.305C98.905 425.536 99.5545 425.851 100.157 426.243C100.458 426.445 100.711 426.711 100.899 427.021C101.086 427.331 101.204 427.679 101.244 428.039C101.244 428.664 100.997 429.264 100.558 429.709C99.6305 430.57 98.4341 431.083 97.1715 431.162Z" fill="#37474F"/>
<path d="M92.5152 404.347L93.2817 402.802C93.9109 403.329 93.03 406.532 92.9156 409.872C92.8736 411.365 92.9693 412.859 93.2016 414.334C93.4075 415.685 93.9244 416.969 94.7117 418.086C95.8714 419.88 97.3211 421.469 99.0017 422.788C99.7858 423.278 100.441 423.949 100.912 424.744C101.172 425.185 101.323 425.682 101.353 426.194C101.383 426.705 101.291 427.216 101.084 427.684C100.701 428.345 100.104 428.853 99.3906 429.126C98.4259 429.504 97.4055 429.72 96.3705 429.766C93.0484 430.032 89.7178 429.371 86.7494 427.856C85.1399 427.028 83.7515 425.828 82.6997 424.355C81.9499 423.032 81.4679 421.574 81.2811 420.065C80.732 417.446 80.915 414.769 80.5947 412.755C80.2744 410.742 78.6385 407.847 78.9245 405.891C79.0846 404.804 80.5146 402.974 81.8417 401.51C83.1687 400.045 84.3928 398.615 84.8504 399.039L84.6673 399.954C85.3302 401.561 86.5481 402.876 88.0993 403.66C89.4445 404.402 91.0083 404.645 92.5152 404.347Z" fill="#455A64"/>
<path d="M94.9521 418.704C95.0357 418.695 95.1144 418.66 95.1778 418.605C95.2412 418.55 95.2862 418.477 95.3067 418.395C95.3205 418.343 95.3237 418.288 95.3161 418.234C95.3086 418.18 95.2905 418.128 95.2628 418.082C95.2352 418.035 95.1985 417.994 95.155 417.961C95.1115 417.929 95.062 417.905 95.0093 417.892C92.6641 417.285 88.3741 417.434 86.3607 418.532C86.3133 418.559 86.2716 418.594 86.2379 418.636C86.2042 418.679 86.1792 418.727 86.1643 418.779C86.1494 418.832 86.145 418.886 86.1512 418.94C86.1574 418.994 86.1742 419.046 86.2005 419.093C86.2256 419.141 86.2603 419.184 86.3026 419.219C86.3448 419.254 86.3937 419.279 86.4462 419.294C86.4987 419.309 86.5537 419.313 86.6079 419.306C86.662 419.299 86.7141 419.281 86.7611 419.253C88.5686 418.258 92.6412 418.109 94.7691 418.693L94.9521 418.704Z" fill="#E0E0E0"/>
<path d="M93.8079 415.501C93.8906 415.495 93.9698 415.465 94.0351 415.414C94.1004 415.363 94.1488 415.294 94.174 415.215C94.1917 415.164 94.1989 415.11 94.1952 415.056C94.1914 415.002 94.1768 414.949 94.1522 414.901C94.1277 414.853 94.0936 414.81 94.0521 414.776C94.0106 414.741 93.9626 414.715 93.9108 414.7C91.2792 413.927 88.4672 414.036 85.9028 415.009C85.8459 415.026 85.7933 415.055 85.7488 415.095C85.7043 415.134 85.6688 415.183 85.6449 415.238C85.621 415.292 85.6093 415.351 85.6104 415.411C85.6115 415.47 85.6256 415.529 85.6515 415.582C85.6775 415.636 85.7147 415.683 85.7607 415.721C85.8067 415.759 85.8604 415.786 85.918 415.801C85.9756 415.816 86.0358 415.819 86.0944 415.808C86.153 415.798 86.2086 415.775 86.2575 415.741C88.6457 414.868 91.2496 414.775 93.6935 415.478C93.7298 415.493 93.7687 415.5 93.8079 415.501Z" fill="#E0E0E0"/>
<path d="M93.156 412.217C93.2296 412.219 93.302 412.199 93.3648 412.16C93.4276 412.122 93.4782 412.066 93.5106 412C93.537 411.953 93.5537 411.901 93.56 411.847C93.5662 411.793 93.5617 411.739 93.5468 411.687C93.5319 411.635 93.5069 411.586 93.4733 411.544C93.4396 411.501 93.3979 411.466 93.3505 411.44C90.8485 410.459 88.0639 410.488 85.5827 411.52C85.5339 411.543 85.4901 411.576 85.4539 411.616C85.4177 411.656 85.3898 411.703 85.3717 411.754C85.3537 411.805 85.3458 411.859 85.3487 411.913C85.3515 411.967 85.365 412.02 85.3883 412.069C85.4373 412.165 85.5225 412.239 85.6252 412.273C85.728 412.307 85.8402 412.3 85.9374 412.252C88.1783 411.331 90.6859 411.298 92.9501 412.16C93.0134 412.195 93.0839 412.214 93.156 412.217Z" fill="#E0E0E0"/>
<path d="M163.146 419.184C163.214 419.864 163.105 420.549 162.83 421.175C162.556 421.8 162.125 422.344 161.579 422.754C158.494 424.522 154.878 425.127 151.386 424.458C145.471 422.971 144.316 421.381 142.234 419.242C139.648 416.519 139.946 415.1 137.028 412.641C135.92 411.846 134.868 410.975 133.882 410.032C133.641 409.131 133.548 408.196 133.608 407.264L163.146 419.184Z" fill="#37474F"/>
<path d="M144.43 399.13L144.613 397.86C145.414 397.963 146.043 400.686 147.748 403.58C149.229 405.933 151.115 408.005 153.319 409.701C156.751 412.275 160.984 414.814 162.917 417.709C164.85 420.603 158.844 423.314 154.291 423.211C152.259 423.174 150.254 422.735 148.392 421.918C146.531 421.101 144.849 419.923 143.446 418.452C141.57 416.542 140.277 414.185 138.87 412.664C137.463 411.142 134.58 409.586 133.756 407.756C133.289 406.024 133.23 404.207 133.585 402.448C133.882 400.652 133.779 398.181 134.386 398.284C134.386 398.455 134.386 399.256 134.386 399.256C136.144 400.394 138.207 400.969 140.3 400.903C141.845 400.827 143.311 400.198 144.43 399.13Z" fill="#455A64"/>
<path d="M156.362 411.657C156.434 411.615 156.492 411.552 156.529 411.477C156.566 411.401 156.579 411.317 156.568 411.234C156.56 411.181 156.541 411.13 156.513 411.085C156.484 411.039 156.447 411 156.403 410.969C156.36 410.938 156.31 410.916 156.258 410.905C156.206 410.893 156.151 410.892 156.099 410.902C153.696 411.268 149.818 413.11 148.411 414.929C148.378 414.971 148.353 415.02 148.339 415.072C148.325 415.124 148.322 415.179 148.329 415.232C148.337 415.285 148.355 415.337 148.383 415.383C148.411 415.429 148.447 415.469 148.491 415.501C148.577 415.567 148.684 415.596 148.791 415.583C148.898 415.57 148.996 415.516 149.063 415.432C150.333 413.796 154.017 412.058 156.225 411.714L156.362 411.657Z" fill="#E0E0E0"/>
<path d="M153.113 409.415C153.185 409.375 153.244 409.315 153.281 409.241C153.318 409.167 153.331 409.084 153.319 409.003C153.302 408.895 153.243 408.799 153.155 408.734C153.067 408.67 152.958 408.643 152.85 408.66C150.144 409.156 147.674 410.522 145.814 412.549C145.747 412.636 145.718 412.745 145.732 412.853C145.746 412.962 145.802 413.06 145.889 413.127C145.975 413.194 146.085 413.223 146.193 413.209C146.301 413.195 146.4 413.139 146.466 413.052C148.197 411.193 150.479 409.938 152.976 409.472C153.025 409.463 153.072 409.443 153.113 409.415Z" fill="#E0E0E0"/>
<path d="M150.367 407.081C150.431 407.043 150.483 406.989 150.519 406.925C150.555 406.861 150.574 406.788 150.573 406.715C150.573 406.606 150.53 406.501 150.453 406.424C150.375 406.346 150.271 406.303 150.161 406.303C147.497 406.644 145.069 408.005 143.389 410.101C143.327 410.191 143.303 410.301 143.322 410.408C143.342 410.516 143.403 410.611 143.492 410.673C143.58 410.736 143.69 410.762 143.797 410.745C143.904 410.728 144 410.669 144.064 410.582C145.587 408.699 147.773 407.471 150.173 407.15C150.243 407.145 150.31 407.121 150.367 407.081Z" fill="#E0E0E0"/>
<path d="M110.293 264.63C107.048 270.934 104.494 277.569 102.674 284.421C100.386 294.168 100.466 300.575 100.558 317.597C100.649 334.62 100.889 349.366 100.889 349.366C100.889 349.366 92.4579 354.937 89.6665 374.248C89.6665 374.248 96.3132 381.112 105.134 378.824C105.134 378.824 114.606 361.996 117.718 356.722C120.829 351.448 127.487 308.331 127.487 308.331L131.491 343.486C131.491 343.486 128.471 351.894 128.86 357.832C129.249 363.769 130.862 373.058 130.862 373.058C136.207 374.687 141.965 374.279 147.027 371.914C147.027 371.914 149.887 344.321 150.264 334.311C150.642 324.301 151.866 288.929 146.947 266.815L110.293 264.63Z" fill="#455A64"/>
<path d="M127.487 308.399L131.446 292.864C131.446 292.864 139.053 293.745 145.036 289.318C145.036 289.318 143.812 295.038 133.207 296.685L128.631 311.889L128.7 319.153L127.487 308.399Z" fill="#263238"/>
<path d="M146.741 260.363C146.302 256.09 146.256 251.786 146.604 247.504C149.023 245.254 150.565 242.217 150.952 238.936C151.34 235.654 150.549 232.342 148.72 229.589C142.943 220.231 135.621 216.742 135.621 216.742L125.977 216.445C124.604 216.605 112.753 218.31 111.243 218.733C111.243 218.733 107.158 222.165 106.049 226.157C105.42 228.445 105.237 230.733 107.284 238.044L112.306 250.845C112.306 250.845 113.771 254.677 113.027 257.366C112.284 260.054 108.2 266.735 106.049 273.222C106.049 273.222 115.201 281.424 132.006 279.525C146.363 277.889 148.457 273.061 148.457 273.061C148.457 273.061 146.912 262.983 146.741 260.363Z" fill="#FAFAFA"/>
<path opacity="0.1" d="M119.708 244.93C120.689 246.654 122.147 248.058 123.906 248.974C125.666 249.889 127.652 250.276 129.627 250.09C131.535 249.974 133.378 249.357 134.971 248.3C136.564 247.244 137.85 245.785 138.699 244.072C138.699 244.072 138.63 251.646 129.684 251.909C120.738 252.172 119.708 244.93 119.708 244.93Z" fill="black"/>
<path d="M184.539 244.335C184.575 243.284 184.261 242.249 183.646 241.395C183.561 241.239 183.439 241.105 183.292 241.003C183.145 240.902 182.977 240.836 182.8 240.812C182.362 240.84 181.951 241.037 181.656 241.361C180.42 242.505 179.368 243.649 178.075 244.793C176.859 245.866 175.323 246.505 173.705 246.612C173.719 246.292 173.84 245.986 174.048 245.743C174.552 245.045 174.929 244.541 175.467 243.786C175.81 243.413 176.066 242.967 176.216 242.483C176.366 241.998 176.407 241.486 176.336 240.984C176.303 240.848 176.235 240.724 176.139 240.624C176.042 240.523 175.921 240.45 175.787 240.412C175.56 240.392 175.333 240.453 175.146 240.583C173.377 241.463 171.718 242.55 170.204 243.821C168.546 245.216 167.562 247.527 164.69 248.66C161.819 249.792 158.753 250.067 153.456 250.765C149.326 251.302 142.531 252.183 137.955 252.584C131.4 245.937 123.38 234.028 119.01 228.114C116.683 224.789 114.089 221.659 111.254 218.756C107.422 219.9 105.202 221.856 104.31 224.601C102.022 230.928 105.248 238.158 113.817 247.687C116.608 250.811 125.062 260.1 129.375 264.436C130.011 265.083 130.781 265.585 131.63 265.905C132.48 266.225 133.389 266.356 134.294 266.289C136.878 266.008 139.445 265.584 141.982 265.019C146.707 263.875 152.701 262.159 157.414 261.015C161.224 260.088 165.182 258.967 168.42 258.018C170.629 257.433 172.799 256.711 174.918 255.856C176.71 255.208 178.404 254.315 179.951 253.201C180.97 252.492 181.859 251.614 182.582 250.605C183.207 249.648 183.686 248.603 184.001 247.504C184.352 246.485 184.534 245.414 184.539 244.335Z" fill="#FFBE9D"/>
<path d="M109.824 183.669C107.17 187.101 106.667 191.586 107.319 196.001C108.463 203.426 112.959 209.203 118.335 211.64C121.55 213.104 125.737 213.722 127.888 211.846C131.24 208.94 134.637 206.126 138.252 203.529C140.952 201.619 143.972 199.708 145.288 196.665C146.432 194.08 146.432 189.652 144.007 187.742C145.921 186.245 147.255 184.13 147.782 181.759C148.021 181.137 148.071 180.459 147.924 179.809C147.778 179.159 147.441 178.568 146.958 178.109C146.272 177.514 144.11 177.412 143.194 177.309C139.99 176.828 136.83 176.09 133.745 175.101C129.922 174.283 125.985 174.132 122.111 174.654C119.09 175.238 115.647 176.428 114.103 180.638C112.364 181.113 110.849 182.186 109.824 183.669Z" fill="#263238"/>
<path d="M137.28 181.621C139.568 182.765 142.508 188.005 143 199.376C143.378 209.009 140.403 211.583 138.882 212.372C137.36 213.162 134.306 212.921 131.343 212.624L131.652 217.44C131.652 217.44 140.197 223.606 133.505 224.888C129.803 225.397 126.046 224.494 122.98 222.359C121.323 221.304 119.899 219.922 118.793 218.298L118.118 206.343C118.118 206.343 116.494 208.128 113.405 205.748C110.854 203.781 109.813 200.269 111.574 198.232C112.036 197.748 112.605 197.379 113.236 197.157C113.868 196.935 114.542 196.866 115.206 196.955C115.869 197.045 116.501 197.29 117.051 197.671C117.601 198.052 118.053 198.558 118.37 199.148C118.37 199.148 120.154 200.051 121.676 196.745C124.579 196.28 127.342 195.174 129.764 193.508C131.749 192.131 133.437 190.369 134.728 188.327C136.019 186.285 136.887 184.005 137.28 181.621Z" fill="#FFBE9D"/>
<path d="M130.313 197.134C130.355 197.459 130.267 197.787 130.067 198.046C129.868 198.306 129.574 198.476 129.249 198.518C128.919 198.544 128.592 198.438 128.339 198.224C128.086 198.009 127.928 197.704 127.899 197.374C127.864 197.054 127.958 196.733 128.16 196.482C128.361 196.231 128.654 196.071 128.975 196.036C129.295 196.001 129.615 196.095 129.867 196.296C130.118 196.498 130.278 196.791 130.313 197.111V197.134Z" fill="#263238"/>
<path d="M130.508 204.433L135.084 205.748C135.012 206.059 134.878 206.351 134.69 206.609C134.503 206.866 134.265 207.083 133.991 207.246C133.718 207.41 133.414 207.516 133.099 207.56C132.783 207.603 132.462 207.582 132.155 207.499C131.54 207.296 131.026 206.865 130.72 206.294C130.413 205.724 130.337 205.058 130.508 204.433Z" fill="#B16668"/>
<path d="M133.265 207.533C133.212 206.95 132.939 206.41 132.501 206.023C132.062 205.636 131.492 205.431 130.908 205.451C130.761 205.462 130.616 205.485 130.473 205.52C130.548 205.979 130.751 206.409 131.058 206.759C131.366 207.109 131.766 207.365 132.212 207.499C132.555 207.592 132.916 207.604 133.265 207.533Z" fill="#F28F8F"/>
<path d="M141.021 192.684L138.424 191.14C138.516 190.968 138.641 190.817 138.793 190.696C138.945 190.575 139.12 190.486 139.307 190.434C139.494 190.383 139.69 190.37 139.883 190.397C140.075 190.424 140.26 190.49 140.426 190.59C140.777 190.794 141.035 191.127 141.146 191.517C141.257 191.908 141.212 192.326 141.021 192.684Z" fill="#263238"/>
<path d="M128.345 192.684L125.634 193.919C125.543 193.747 125.489 193.558 125.474 193.364C125.459 193.17 125.484 192.974 125.547 192.79C125.61 192.606 125.711 192.436 125.842 192.292C125.973 192.148 126.132 192.032 126.309 191.952C126.677 191.789 127.095 191.774 127.474 191.91C127.853 192.046 128.165 192.324 128.345 192.684Z" fill="#263238"/>
<path d="M140.575 196.219C140.592 196.377 140.578 196.538 140.533 196.691C140.489 196.844 140.414 196.987 140.314 197.111C140.214 197.235 140.091 197.339 139.951 197.415C139.811 197.492 139.658 197.54 139.499 197.557C139.341 197.575 139.181 197.561 139.027 197.516C138.874 197.471 138.732 197.397 138.607 197.297C138.483 197.197 138.38 197.074 138.303 196.934C138.226 196.794 138.178 196.64 138.161 196.482C138.119 196.157 138.207 195.829 138.406 195.57C138.606 195.31 138.9 195.14 139.225 195.098C139.551 195.072 139.875 195.175 140.127 195.384C140.379 195.594 140.54 195.893 140.575 196.219Z" fill="#263238"/>
<path d="M134.717 195.887L135.37 203.163L139.133 201.733L134.717 195.887Z" fill="#FFBE9D"/>
<path d="M131.285 212.624C128.162 212.406 121.687 210.976 120.532 208.528C121.013 209.774 121.863 210.844 122.969 211.594C124.971 213.104 131.411 214.546 131.411 214.546L131.285 212.624Z" fill="#FFBE9D"/>
<path d="M118.312 196.768L118.621 201.824C119.075 201.8 119.52 201.685 119.929 201.487C120.339 201.289 120.704 201.012 121.006 200.671C121.307 200.33 121.537 199.933 121.684 199.503C121.83 199.072 121.89 198.617 121.859 198.164L121.561 193.485L118.312 196.768Z" fill="#263238"/>
<path d="M278.793 351.048L284.639 354.4V60.4941L278.793 63.8689V351.048Z" fill="#FFC554"/>
<path opacity="0.4" d="M278.793 351.048L284.639 354.4V60.4941L278.793 63.8689V351.048Z" fill="white"/>
<path opacity="0.1" d="M278.793 351.048L284.639 354.4V60.4941L278.793 63.8689V351.048Z" fill="black"/>
<path d="M284.639 354.4L302.542 344.058V29.4697L87.3672 153.708V468.262L105.294 457.955V164.05L284.627 60.495L284.639 354.4Z" fill="#FFC554"/>
<path opacity="0.7" d="M284.639 354.4L302.542 344.058V29.4697L87.3672 153.708V468.262L105.294 457.955V164.05L284.627 60.495L284.639 354.4Z" fill="white"/>
<path d="M302.542 29.4696L87.3672 153.708L81.6128 150.367L296.799 26.1406L302.542 29.4696Z" fill="#FFC554"/>
<path opacity="0.85" d="M302.542 29.4696L87.3672 153.708L81.6128 150.367L296.799 26.1406L302.542 29.4696Z" fill="white"/>
<path d="M87.3672 468.262V153.708L81.6128 150.367V464.944L87.3672 468.262Z" fill="#FFC554"/>
<path opacity="0.6" d="M81.6128 150.367V464.944L87.3672 468.262V153.708" fill="white"/>
<path d="M273.302 380.735L326.086 350.259L392.461 388.571L339.676 419.047L273.302 380.735Z" fill="black"/>
<path d="M326.086 350.259V298.149L272.238 329.243L317.288 355.338L326.086 350.259Z" fill="#37474F"/>
<path d="M326.086 298.149V350.259L348.474 363.174L393.525 337.08L326.086 298.149Z" fill="#263238"/>
<path d="M272.238 329.243V380.117L339.676 419.047V368.254L272.238 329.243Z" fill="#263238"/>
<path d="M339.676 368.254V419.047L393.525 387.953V337.08L339.676 368.254Z" fill="#37474F"/>
<path d="M339.676 368.254L340.729 417.114L379.842 395.858L339.676 419.047V368.254Z" fill="#455A64"/>
<path d="M346.106 402.688C345.912 402.691 345.722 402.639 345.557 402.539C345.319 402.368 345.13 402.138 345.01 401.871C344.889 401.604 344.841 401.309 344.87 401.018V396.522V396.19H345.099L348.623 394.12V399.256C348.617 399.903 348.456 400.538 348.153 401.11C347.851 401.681 347.415 402.171 346.884 402.539C346.641 402.654 346.373 402.705 346.106 402.688ZM345.431 396.854V401.018C345.407 401.21 345.432 401.406 345.504 401.586C345.576 401.766 345.692 401.925 345.843 402.048C345.967 402.101 346.102 402.121 346.236 402.107C346.37 402.093 346.499 402.045 346.609 401.967C347.049 401.644 347.408 401.224 347.66 400.741C347.912 400.257 348.049 399.721 348.062 399.176V398.81H346.758L346.495 397.037L345.431 396.854ZM347.238 398.238H348.062V395.126L345.957 396.373L346.998 396.556L347.238 398.238Z" fill="#E0E0E0"/>
<path d="M346.746 406.303C346.671 406.303 346.598 406.273 346.544 406.219C346.491 406.166 346.46 406.093 346.46 406.017V402.242C346.46 402.166 346.491 402.093 346.544 402.04C346.598 401.986 346.671 401.956 346.746 401.956C346.822 401.956 346.895 401.986 346.949 402.04C347.002 402.093 347.032 402.166 347.032 402.242V406.017C347.032 406.093 347.002 406.166 346.949 406.219C346.895 406.273 346.822 406.303 346.746 406.303Z" fill="#E0E0E0"/>
<path d="M345.099 407.264C345.05 407.261 345.002 407.246 344.96 407.22C344.918 407.194 344.883 407.158 344.859 407.115C344.821 407.05 344.811 406.973 344.83 406.9C344.85 406.827 344.897 406.765 344.962 406.726L348.245 404.839C348.31 404.801 348.388 404.791 348.461 404.81C348.534 404.83 348.596 404.877 348.634 404.942C348.652 404.973 348.664 405.008 348.669 405.044C348.674 405.08 348.671 405.117 348.662 405.152C348.652 405.187 348.636 405.22 348.613 405.249C348.591 405.277 348.563 405.301 348.531 405.319L345.248 407.264C345.2 407.281 345.147 407.281 345.099 407.264Z" fill="#E0E0E0"/>
<path d="M356.814 400.743C356.706 400.741 356.6 400.714 356.505 400.663C356.391 400.59 356.3 400.488 356.239 400.367C356.179 400.246 356.152 400.111 356.162 399.977V399.256C356.162 399.18 356.192 399.107 356.245 399.054C356.299 399 356.372 398.97 356.448 398.97C356.523 398.97 356.596 399 356.65 399.054C356.703 399.107 356.734 399.18 356.734 399.256V400.034C356.711 400.097 356.711 400.166 356.734 400.228C356.734 400.228 356.825 400.228 356.917 400.171C357.091 400.01 357.229 399.814 357.32 399.594C357.41 399.375 357.452 399.139 357.443 398.901V393.868C357.443 393.792 357.473 393.719 357.527 393.666C357.58 393.612 357.653 393.582 357.729 393.582C357.805 393.582 357.877 393.612 357.931 393.666C357.985 393.719 358.015 393.792 358.015 393.868V398.901C358.027 399.237 357.962 399.571 357.823 399.877C357.684 400.183 357.475 400.452 357.214 400.663C357.089 400.721 356.951 400.748 356.814 400.743Z" fill="#E0E0E0"/>
<path d="M353.828 396.339V395.824C353.897 394.568 354.262 393.345 354.892 392.256C355.522 391.167 356.4 390.241 357.454 389.555C357.834 389.238 358.303 389.045 358.796 389.005C359.289 388.964 359.783 389.076 360.21 389.326C360.637 389.577 360.976 389.953 361.181 390.403C361.386 390.854 361.447 391.357 361.355 391.843V392.014L353.828 396.339ZM359.147 389.635C358.645 389.656 358.157 389.805 357.729 390.07C356.831 390.66 356.072 391.436 355.501 392.346C354.931 393.256 354.563 394.279 354.423 395.343L360.783 391.671C360.805 391.316 360.737 390.961 360.585 390.639C360.433 390.317 360.202 390.039 359.914 389.829C359.679 389.701 359.415 389.634 359.147 389.635Z" fill="#E0E0E0"/>
<path d="M366.972 394.943C366.896 394.943 366.824 394.913 366.77 394.859C366.716 394.806 366.686 394.733 366.686 394.657V385.036C366.686 384.96 366.716 384.887 366.77 384.834C366.824 384.78 366.896 384.75 366.972 384.75C367.048 384.75 367.121 384.78 367.175 384.834C367.228 384.887 367.258 384.96 367.258 385.036V394.68C367.253 394.752 367.22 394.819 367.167 394.868C367.114 394.916 367.044 394.943 366.972 394.943Z" fill="#E0E0E0"/>
<path d="M366.149 387.233H366.034C366 387.218 365.968 387.196 365.942 387.169C365.916 387.142 365.895 387.11 365.881 387.075C365.868 387.04 365.861 387.002 365.862 386.965C365.862 386.927 365.87 386.89 365.886 386.855L366.892 384.567L368.036 385.86C368.089 385.913 368.118 385.985 368.118 386.06C368.118 386.135 368.089 386.207 368.036 386.26C368.011 386.288 367.98 386.309 367.945 386.324C367.911 386.339 367.874 386.347 367.836 386.347C367.799 386.347 367.761 386.339 367.727 386.324C367.693 386.309 367.661 386.288 367.636 386.26L367.098 385.654L366.446 387.153C366.409 387.193 366.362 387.222 366.309 387.236C366.256 387.25 366.201 387.249 366.149 387.233Z" fill="#E0E0E0"/>
<path d="M369.592 393.456C369.516 393.456 369.443 393.426 369.39 393.372C369.336 393.319 369.306 393.246 369.306 393.17V383.538C369.309 383.464 369.34 383.394 369.394 383.343C369.447 383.291 369.518 383.263 369.592 383.263C369.666 383.263 369.737 383.291 369.79 383.343C369.844 383.394 369.875 383.464 369.878 383.538V393.17C369.878 393.246 369.848 393.319 369.794 393.372C369.741 393.426 369.668 393.456 369.592 393.456Z" fill="#E0E0E0"/>
<path d="M368.757 385.734C368.723 385.744 368.687 385.744 368.654 385.734C368.619 385.722 368.586 385.702 368.559 385.676C368.532 385.65 368.511 385.619 368.497 385.585C368.483 385.55 368.476 385.513 368.478 385.475C368.479 385.438 368.489 385.401 368.505 385.368L369.512 383.08L370.656 384.384C370.683 384.41 370.705 384.441 370.72 384.475C370.735 384.51 370.743 384.547 370.743 384.584C370.743 384.622 370.735 384.659 370.72 384.693C370.705 384.728 370.683 384.759 370.656 384.784C370.603 384.833 370.534 384.861 370.462 384.861C370.389 384.861 370.32 384.833 370.267 384.784L369.729 384.167L369.077 385.665C369.038 385.71 368.986 385.74 368.928 385.753C368.871 385.765 368.811 385.758 368.757 385.734Z" fill="#E0E0E0"/>
<path d="M283.769 365.359L298.47 373.848C298.662 373.973 298.823 374.142 298.938 374.341C299.053 374.539 299.12 374.762 299.133 374.992V385.219C299.133 386.054 298.538 386.363 297.817 385.986L283.117 377.52C282.924 377.395 282.763 377.227 282.648 377.028C282.532 376.829 282.466 376.605 282.454 376.376V366.08C282.454 365.279 283.049 364.936 283.769 365.359Z" fill="#FAFAFA"/>
<path d="M283.415 366.95L283.906 367.236V376.25L283.403 375.964L283.415 366.95Z" fill="#455A64"/>
<path d="M285.439 368.116L286.309 368.631V377.646L285.439 377.143V368.116Z" fill="#455A64"/>
<path d="M287.476 369.295L287.979 369.581V378.607L287.476 378.309V369.295Z" fill="#455A64"/>
<path d="M289.02 370.164L290.015 370.759V379.785L289.02 379.19V370.164Z" fill="#455A64"/>
<path d="M291.548 371.651L292.052 371.937V380.952L291.548 380.666V371.651Z" fill="#455A64"/>
<path d="M293.013 372.475L294.088 373.104V382.13L293.013 381.49V372.475Z" fill="#455A64"/>
<path d="M295.621 373.997L296.124 374.283V383.309L295.621 383.011V373.997Z" fill="#455A64"/>
<path d="M296.788 374.66L297.04 374.797V383.823L296.788 383.675V374.66Z" fill="#455A64"/>
<path d="M294.694 373.505L294.946 373.653V382.668L294.694 382.519V373.505Z" fill="#455A64"/>
<path d="M290.599 371.102L290.851 371.251V380.266L290.599 380.117V371.102Z" fill="#455A64"/>
<path d="M288.345 369.81L288.597 369.958V378.973L288.345 378.836V369.81Z" fill="#455A64"/>
<path d="M286.732 368.929L286.984 369.066V378.092L286.732 377.943V368.929Z" fill="#455A64"/>
<path d="M284.547 367.59L284.799 367.739V376.754L284.547 376.616V367.59Z" fill="#455A64"/>
<path d="M297.657 375.175L298.161 375.461V384.475L297.657 384.189V375.175Z" fill="#455A64"/>
<path d="M326.086 298.149L272.238 329.243L339.676 368.254L393.525 337.08L326.086 298.149Z" fill="#455A64"/>
<path opacity="0.1" d="M272.238 329.243L339.676 366.332L393.525 337.08L339.676 368.254L272.238 329.243Z" fill="white"/>
<path d="M294.58 316.328L362.065 355.292L370.359 350.499L302.885 311.534L294.58 316.328Z" fill="#FFC554"/>
<path d="M370.359 350.487V361.035L369.352 360.463L368.311 362.259L367.27 361.653L366.229 363.472L365.188 362.854L364.147 364.65L363.094 364.055L362.053 365.863V355.292L370.359 350.487Z" fill="#FFC554"/>
<path opacity="0.25" d="M370.359 350.487V361.035L369.352 360.463L368.311 362.259L367.27 361.653L366.229 363.472L365.188 362.854L364.147 364.65L363.094 364.055L362.053 365.863V355.292L370.359 350.487Z" fill="black"/>
<path opacity="0.1" d="M334.643 304.876L287.682 331.989L334.643 359.193L381.616 331.989L334.643 304.876Z" fill="black"/>
<path d="M295.392 331.394L334.643 308.731L373.905 331.394L334.643 354.068L295.392 331.394Z" fill="black"/>
<path d="M334.643 308.731V263.886L294.466 287.087L333.247 309.543L334.643 308.731Z" fill="#37474F"/>
<path d="M334.643 263.886V308.731L336.05 309.543L374.82 287.087L334.643 263.886Z" fill="#263238"/>
<path d="M294.466 287.087V330.868L334.643 354.068V310.356L294.466 287.087Z" fill="#263238"/>
<path d="M334.643 310.356V354.068L374.82 330.868V287.087L334.643 310.356Z" fill="#37474F"/>
<path d="M334.643 310.356L335.558 352.398L369.215 334.105L334.643 354.068V310.356Z" fill="#455A64"/>
<path d="M340.191 339.997C340.022 340.001 339.856 339.957 339.711 339.871C339.506 339.725 339.343 339.528 339.238 339.299C339.134 339.07 339.092 338.817 339.116 338.567V334.689V334.391H339.31L342.353 332.606V336.931C342.353 337.484 342.223 338.029 341.972 338.522C341.722 339.015 341.359 339.442 340.912 339.768C340.7 339.914 340.449 339.994 340.191 339.997ZM339.608 334.975V338.624C339.588 338.789 339.608 338.957 339.668 339.113C339.728 339.268 339.825 339.407 339.951 339.516C340.059 339.561 340.177 339.576 340.293 339.562C340.409 339.548 340.52 339.505 340.615 339.436C340.993 339.158 341.302 338.797 341.519 338.381C341.735 337.964 341.852 337.503 341.861 337.034V336.713H340.717L340.5 335.203L339.608 334.975ZM341.164 336.176H341.861V333.499L340.054 334.563L340.946 334.723L341.164 336.176Z" fill="#E0E0E0"/>
<path d="M340.729 343.086C340.665 343.086 340.604 343.06 340.559 343.015C340.514 342.97 340.489 342.909 340.489 342.845V339.596C340.481 339.56 340.481 339.522 340.49 339.485C340.498 339.449 340.515 339.414 340.539 339.385C340.562 339.356 340.592 339.332 340.626 339.316C340.66 339.3 340.697 339.291 340.735 339.291C340.772 339.291 340.809 339.3 340.843 339.316C340.877 339.332 340.907 339.356 340.931 339.385C340.954 339.414 340.971 339.449 340.98 339.485C340.988 339.522 340.989 339.56 340.981 339.596V342.845C340.981 342.878 340.974 342.91 340.961 342.94C340.949 342.97 340.93 342.997 340.906 343.019C340.883 343.042 340.855 343.059 340.824 343.071C340.794 343.082 340.761 343.087 340.729 343.086Z" fill="#E0E0E0"/>
<path d="M339.322 343.909C339.278 343.908 339.235 343.896 339.197 343.874C339.159 343.852 339.127 343.821 339.105 343.783C339.075 343.727 339.068 343.661 339.085 343.599C339.102 343.538 339.141 343.485 339.196 343.452L342.022 341.816C342.076 341.797 342.136 341.798 342.19 341.818C342.244 341.838 342.29 341.876 342.319 341.925C342.349 341.975 342.36 342.033 342.352 342.09C342.343 342.147 342.316 342.2 342.273 342.239L339.436 343.875C339.402 343.897 339.362 343.909 339.322 343.909Z" fill="#E0E0E0"/>
<path d="M349.4 338.304C349.305 338.305 349.21 338.281 349.126 338.235C349.031 338.172 348.954 338.085 348.903 337.982C348.853 337.88 348.831 337.765 348.84 337.652V336.977C348.84 336.913 348.865 336.852 348.91 336.807C348.955 336.762 349.016 336.736 349.08 336.736C349.144 336.736 349.205 336.762 349.25 336.807C349.295 336.852 349.32 336.913 349.32 336.977V337.652C349.303 337.704 349.303 337.76 349.32 337.812C349.32 337.812 349.4 337.812 349.481 337.812C349.638 337.668 349.761 337.49 349.84 337.292C349.919 337.094 349.953 336.881 349.938 336.668V332.343C349.938 332.28 349.963 332.219 350.009 332.174C350.054 332.128 350.115 332.103 350.178 332.103C350.242 332.103 350.303 332.128 350.348 332.174C350.393 332.219 350.419 332.28 350.419 332.343V336.668C350.431 336.957 350.376 337.246 350.256 337.51C350.137 337.774 349.958 338.007 349.732 338.189C349.633 338.254 349.519 338.293 349.4 338.304Z" fill="#E0E0E0"/>
<path d="M346.827 334.517V334.048C346.885 332.967 347.199 331.916 347.742 330.979C348.285 330.043 349.041 329.248 349.95 328.66C350.273 328.388 350.672 328.223 351.093 328.186C351.514 328.149 351.936 328.242 352.302 328.453C352.668 328.664 352.96 328.983 353.139 329.366C353.318 329.748 353.375 330.177 353.301 330.593V330.742L346.827 334.517ZM351.402 328.797C350.972 328.815 350.554 328.945 350.19 329.174C349.412 329.685 348.754 330.359 348.262 331.149C347.77 331.939 347.456 332.827 347.341 333.75L352.81 330.593C352.83 330.287 352.772 329.98 352.642 329.702C352.512 329.424 352.314 329.184 352.066 329.003C351.87 328.864 351.641 328.778 351.402 328.751V328.797Z" fill="#E0E0E0"/>
<path d="M358.141 333.316C358.077 333.316 358.016 333.29 357.971 333.245C357.926 333.2 357.9 333.139 357.9 333.076V324.793C357.9 324.729 357.926 324.668 357.971 324.623C358.016 324.578 358.077 324.553 358.141 324.553C358.204 324.553 358.265 324.578 358.311 324.623C358.356 324.668 358.381 324.729 358.381 324.793V333.076C358.381 333.107 358.375 333.138 358.363 333.167C358.351 333.197 358.333 333.223 358.311 333.245C358.288 333.268 358.262 333.285 358.233 333.297C358.203 333.31 358.172 333.316 358.141 333.316Z" fill="#E0E0E0"/>
<path d="M357.431 326.681H357.328C357.299 326.668 357.272 326.65 357.25 326.627C357.227 326.604 357.21 326.577 357.198 326.547C357.186 326.517 357.181 326.485 357.181 326.453C357.182 326.421 357.189 326.39 357.203 326.36L358.072 324.358L359.033 325.502C359.056 325.525 359.074 325.551 359.086 325.581C359.099 325.61 359.105 325.642 359.105 325.674C359.105 325.706 359.099 325.737 359.086 325.767C359.074 325.796 359.056 325.823 359.033 325.845C358.986 325.889 358.925 325.913 358.861 325.913C358.798 325.913 358.736 325.889 358.69 325.845L358.232 325.319L357.672 326.612C357.642 326.644 357.603 326.668 357.561 326.68C357.519 326.692 357.474 326.692 357.431 326.681Z" fill="#E0E0E0"/>
<path d="M360.36 332.034C360.295 332.035 360.233 332.01 360.186 331.965C360.139 331.92 360.111 331.859 360.108 331.794V323.5C360.12 323.444 360.152 323.394 360.196 323.358C360.241 323.322 360.297 323.302 360.354 323.302C360.412 323.302 360.467 323.322 360.512 323.358C360.557 323.394 360.588 323.444 360.6 323.5V331.76C360.603 331.794 360.6 331.828 360.589 331.861C360.578 331.893 360.561 331.923 360.539 331.949C360.517 331.974 360.489 331.995 360.458 332.01C360.428 332.025 360.394 332.033 360.36 332.034Z" fill="#E0E0E0"/>
<path d="M359.674 325.399H359.582C359.553 325.387 359.526 325.369 359.503 325.346C359.481 325.323 359.463 325.296 359.452 325.266C359.44 325.236 359.434 325.204 359.435 325.172C359.436 325.14 359.443 325.108 359.456 325.079L360.326 323.077L361.287 324.221C361.329 324.27 361.351 324.333 361.346 324.397C361.342 324.462 361.312 324.522 361.264 324.564C361.24 324.585 361.212 324.601 361.182 324.612C361.151 324.622 361.119 324.626 361.087 324.624C361.023 324.62 360.963 324.59 360.921 324.541L360.463 324.015L359.902 325.308C359.875 325.341 359.84 325.367 359.8 325.384C359.76 325.4 359.716 325.405 359.674 325.399Z" fill="#E0E0E0"/>
<path d="M304.395 318.169L317.048 325.467C317.214 325.578 317.351 325.725 317.451 325.898C317.55 326.07 317.608 326.265 317.62 326.463V335.249C317.62 335.981 317.105 336.279 316.476 335.913L303.823 328.603C303.66 328.494 303.524 328.348 303.426 328.177C303.329 328.006 303.273 327.814 303.263 327.618V318.821C303.263 318.101 303.778 317.803 304.395 318.169Z" fill="#FAFAFA"/>
<path d="M304.087 319.531L304.51 319.782V327.539L304.087 327.298V319.531Z" fill="#455A64"/>
<path d="M305.837 320.549L306.581 320.983V328.74L305.837 328.305V320.549Z" fill="#455A64"/>
<path d="M307.587 321.555L308.022 321.807V329.563L307.587 329.312V321.555Z" fill="#455A64"/>
<path d="M308.914 322.299L309.772 322.814V330.57L308.914 330.067V322.299Z" fill="#455A64"/>
<path d="M311.088 323.58L311.523 323.821V331.588L311.088 331.337V323.58Z" fill="#455A64"/>
<path d="M312.358 324.29L313.273 324.839V332.595L312.358 332.046V324.29Z" fill="#455A64"/>
<path d="M314.6 325.605L315.023 325.845V333.613L314.6 333.362V325.605Z" fill="#455A64"/>
<path d="M315.595 326.166L315.813 326.292V334.048L315.595 333.934V326.166Z" fill="#455A64"/>
<path d="M313.799 325.182L314.017 325.296V333.064L313.799 332.938V325.182Z" fill="#455A64"/>
<path d="M310.264 323.111L310.482 323.237V330.993L310.264 330.868V323.111Z" fill="#455A64"/>
<path d="M308.331 322.002L308.548 322.127V329.884L308.331 329.758V322.002Z" fill="#455A64"/>
<path d="M306.947 321.235L307.164 321.361V329.117L306.947 328.991V321.235Z" fill="#455A64"/>
<path d="M305.07 320.091L305.276 320.217V327.973L305.07 327.847V320.091Z" fill="#455A64"/>
<path d="M316.35 326.612L316.774 326.864V334.62L316.35 334.368V326.612Z" fill="#455A64"/>
<path d="M334.643 263.886L294.466 287.087L334.643 310.356L374.82 287.087L334.643 263.886Z" fill="#455A64"/>
<path opacity="0.1" d="M294.466 287.087L334.643 308.697L374.82 287.087L334.643 310.356L294.466 287.087Z" fill="white"/>
<path d="M312.323 276.779L352.535 299.991L359.674 295.861L319.473 272.65L312.323 276.779Z" fill="#FFC554"/>
<path d="M359.674 295.861V304.933L358.816 304.441L357.912 305.986L357.019 305.46L356.127 307.027L355.223 306.501L354.331 308.045L353.427 307.53L352.535 309.086V299.991L359.674 295.861Z" fill="#FFC554"/>
<path opacity="0.25" d="M359.674 295.861V304.933L358.816 304.441L357.912 305.986L357.019 305.46L356.127 307.027L355.223 306.501L354.331 308.045L353.427 307.53L352.535 309.086V299.991L359.674 295.861Z" fill="black"/>
<path d="M515.681 419.516C512.706 421.232 509.343 421.198 505.694 419.814L503.269 400.206L515.853 397.3L515.681 419.516Z" fill="#B16668"/>
<path d="M479.336 411.325C476.934 416.931 473.433 415.101 468.113 411.714L467.702 392.392L481.43 391.454L479.336 411.325Z" fill="#B16668"/>
<path d="M494.288 437.649C494.009 438.756 494.077 439.922 494.483 440.989C494.894 441.596 497.068 443.449 501.175 443.62C505.099 443.781 508.577 443.151 510.83 441.63C511.804 441.081 512.627 440.299 513.225 439.355C513.824 438.411 514.18 437.334 514.262 436.219C514.423 433.931 514.102 431.837 515.12 430.087C516.139 428.337 517.317 426.884 517.637 426.014C518.029 424.445 518.076 422.81 517.774 421.221L494.288 437.649Z" fill="#263238"/>
<path d="M504.264 418.99C504.236 419.835 504.101 420.673 503.863 421.484C503.305 423.229 502.537 424.9 501.575 426.46C501.105 427.279 500.582 428.067 500.008 428.817C498.864 430.258 497.434 431.46 496.221 432.844C494.917 434.159 494.108 435.885 493.933 437.729C493.853 440.806 497.217 441.744 499.802 442.133C502.594 442.535 505.44 442.304 508.131 441.458C509.562 441.062 510.848 440.257 511.829 439.141C512.81 438.026 513.445 436.648 513.656 435.178C513.77 434.32 513.656 433.45 513.77 432.581C514.056 430.61 514.822 428.74 516.001 427.135C516.685 426.209 517.268 425.211 517.74 424.161C518.484 422.239 517.74 420.111 517.214 418.235C516.722 416.611 516.344 414.666 515.772 414.803C515.772 415.135 515.772 415.856 515.772 415.856C515.601 416.21 515.189 416.462 515.075 416.885C514.968 417.323 514.827 417.751 514.651 418.166C514.378 418.802 513.92 419.34 513.336 419.711L513.107 416.279C513.121 415.916 513.017 415.559 512.81 415.261C512.533 415.019 512.181 414.882 511.814 414.872C509.653 414.417 507.434 414.298 505.236 414.517C505.07 414.518 504.906 414.556 504.756 414.627C504.606 414.698 504.473 414.801 504.367 414.929C504.231 415.168 504.187 415.449 504.241 415.718C504.311 416.808 504.318 417.9 504.264 418.99Z" fill="#37474F"/>
<path d="M501.209 427.113C502.353 426.22 504.893 426.14 506.3 426.243C507.729 426.324 509.114 426.765 510.327 427.524C510.503 427.64 510.713 427.69 510.922 427.667C511.13 427.644 511.325 427.549 511.471 427.399C511.558 427.309 511.625 427.202 511.666 427.084C511.707 426.967 511.723 426.841 511.711 426.717C511.699 426.593 511.66 426.473 511.597 426.365C511.533 426.258 511.448 426.165 511.345 426.094C509.997 425.16 508.409 424.631 506.769 424.573C503.337 424.424 502.319 425.053 502.319 425.053C502.319 425.053 500.843 426.106 501.209 427.113Z" fill="#F5F5F5"/>
<path d="M498.681 430.339C500.088 429.446 502.914 429.492 504.321 429.595C505.722 429.698 507.071 430.167 508.233 430.956C508.41 431.067 508.62 431.115 508.827 431.092C509.035 431.07 509.229 430.977 509.377 430.83C509.465 430.741 509.531 430.634 509.572 430.516C509.614 430.399 509.629 430.273 509.617 430.149C509.605 430.025 509.566 429.905 509.503 429.797C509.44 429.69 509.354 429.597 509.252 429.526C507.892 428.552 506.287 427.977 504.618 427.867C501.186 427.73 500.283 428.462 500.283 428.462C499.892 428.634 499.545 428.892 499.267 429.217C498.99 429.542 498.79 429.925 498.681 430.339Z" fill="#F5F5F5"/>
<path d="M508.119 421.232C506.659 421.013 505.168 421.183 503.795 421.724C503.188 422.079 502.822 423.051 503.223 423.28C504.425 422.757 505.737 422.537 507.044 422.639C508.342 422.725 509.615 423.034 510.808 423.555C511.105 423.681 511.46 423.852 511.768 424.012C511.868 424.068 511.978 424.102 512.091 424.113C512.205 424.123 512.319 424.109 512.427 424.073C512.535 424.036 512.634 423.977 512.718 423.9C512.801 423.822 512.868 423.728 512.912 423.623C512.991 423.451 513.002 423.255 512.942 423.075C512.883 422.894 512.758 422.743 512.592 422.651C511.22 421.864 509.694 421.38 508.119 421.232Z" fill="#F5F5F5"/>
<path d="M447.018 424.195C446.753 425.101 446.839 426.073 447.258 426.918C447.659 427.707 451.914 429.938 457.554 429.389C461.708 428.966 465.673 427.442 469.04 424.973C471.145 423.486 473.376 423.154 476.156 422.914C478.936 422.674 481.064 421.77 481.636 420.431C481.917 419.251 481.846 418.014 481.43 416.874L447.018 424.195Z" fill="#263238"/>
<path d="M469.303 406.887C468.798 406.766 468.301 406.613 467.816 406.429C467.556 406.301 467.258 406.277 466.981 406.36C466.817 406.463 466.681 406.602 466.581 406.767C466.482 406.932 466.423 407.118 466.409 407.31C466.303 408.144 466.123 408.967 465.871 409.77C465.47 410.431 464.951 411.013 464.338 411.486C462.969 412.646 461.485 413.666 459.911 414.529C458.103 415.57 456.319 416.393 454.443 417.297C452.566 418.201 449.97 418.841 448.482 419.905C446.32 421.461 446.194 425.214 448.711 426.621C450.919 427.833 456.719 429.046 462.634 427.17C465.871 426.14 469.395 422.594 473.673 422.079C476.396 421.793 480.022 421.45 481.681 419.333C482.299 418.395 481.841 415.718 481.429 412.561C481.063 409.724 480.777 405.308 479.874 405.583C479.874 405.583 479.508 406.612 479.439 406.727C479.209 407.077 478.949 407.406 478.661 407.71C478.416 407.962 478.156 408.198 477.883 408.42C477.572 408.757 477.244 409.078 476.899 409.381C476.452 409.749 475.899 409.966 475.321 409.998C475.044 410.01 474.77 409.943 474.531 409.804C474.074 409.529 474.028 408.923 473.662 408.534C473.238 408.099 472.733 407.753 472.175 407.516C471.39 407.21 470.566 407.021 469.726 406.955C469.601 406.944 469.44 406.91 469.303 406.887Z" fill="#37474F"/>
<path d="M462.416 412.984C462.601 412.604 462.877 412.276 463.221 412.03C463.565 411.784 463.964 411.628 464.384 411.577C465.619 411.314 467.816 412.16 469.235 413.247C469.367 413.348 469.472 413.479 469.542 413.63C469.611 413.781 469.643 413.946 469.634 414.112C469.625 414.278 469.575 414.439 469.49 414.582C469.404 414.724 469.285 414.843 469.143 414.929C468.965 415.03 468.761 415.076 468.557 415.06C468.353 415.043 468.158 414.966 467.999 414.837C466.452 413.514 464.448 412.849 462.416 412.984Z" fill="#F5F5F5"/>
<path d="M458.63 415.272C458.889 414.881 459.238 414.559 459.648 414.332C460.059 414.105 460.518 413.98 460.986 413.968C462.898 413.998 464.752 414.63 466.283 415.775C466.409 415.874 466.509 416 466.575 416.145C466.641 416.29 466.672 416.449 466.664 416.608C466.656 416.768 466.61 416.922 466.53 417.06C466.45 417.198 466.338 417.314 466.203 417.4C466.027 417.506 465.821 417.555 465.616 417.538C465.411 417.522 465.216 417.441 465.059 417.308C464.209 416.507 463.19 415.909 462.077 415.556C460.964 415.203 459.785 415.106 458.63 415.272Z" fill="#F5F5F5"/>
<path d="M454.443 417.297C454.745 416.942 455.12 416.657 455.542 416.459C455.965 416.262 456.425 416.157 456.891 416.153C458.735 416.21 460.513 416.851 461.97 417.983C462.096 418.083 462.196 418.211 462.262 418.356C462.328 418.502 462.359 418.662 462.351 418.822C462.343 418.982 462.297 419.138 462.217 419.276C462.137 419.415 462.025 419.532 461.89 419.619C461.713 419.724 461.507 419.77 461.301 419.752C461.096 419.733 460.902 419.651 460.746 419.516C459.94 418.682 458.951 418.046 457.857 417.661C456.762 417.276 455.593 417.151 454.443 417.297Z" fill="#F5F5F5"/>
<path d="M424.973 241.247C422.8 239.245 420.512 234.451 418.738 237.083C417.594 238.856 420.02 240.057 419.882 242.299C419.745 244.541 412.915 239.222 410.067 237.231C408.168 235.904 403.786 240.057 405.548 244.553C407.104 248.545 409.598 251.074 414.071 252.961C418.796 254.963 421.267 255.959 427.193 258.624C429.847 254.86 431.7 251.142 431.048 247.527C426.392 244.816 426.849 242.974 424.973 241.247Z" fill="#FFC554"/>
<path opacity="0.7" d="M424.973 241.247C422.8 239.245 420.512 234.451 418.738 237.083C417.594 238.856 420.02 240.057 419.882 242.299C419.745 244.541 412.915 239.222 410.067 237.231C408.168 235.904 403.786 240.057 405.548 244.553C407.104 248.545 409.598 251.074 414.071 252.961C418.796 254.963 421.267 255.959 427.193 258.624C429.847 254.86 431.7 251.142 431.048 247.527C426.392 244.816 426.849 242.974 424.973 241.247Z" fill="white"/>
<path opacity="0.1" d="M424.973 241.247C422.8 239.245 420.512 234.451 418.738 237.083C417.594 238.856 420.02 240.057 419.882 242.299C419.745 244.541 412.915 239.222 410.067 237.231C408.168 235.904 403.786 240.057 405.548 244.553C407.104 248.545 409.598 251.074 414.071 252.961C418.796 254.963 421.267 255.959 427.193 258.624C429.847 254.86 431.7 251.142 431.048 247.527C426.392 244.816 426.849 242.974 424.973 241.247Z" fill="black"/>
<path opacity="0.1" d="M419.425 244.667C419.425 246.681 419.974 249.884 422.857 251.531C422.135 251.433 421.447 251.164 420.85 250.746C420.253 250.328 419.764 249.774 419.425 249.129C419.053 248.444 418.859 247.677 418.859 246.898C418.859 246.119 419.053 245.352 419.425 244.667Z" fill="black"/>
<path d="M481.109 218.767C478.535 222.199 479.599 220.792 478.821 226.032C478.181 230.253 469.315 270.876 461.284 272.558C457.76 273.302 432.341 261.667 426.174 258.27C428.502 255.052 430.16 251.399 431.048 247.527C438.438 250.422 451.171 253.247 455.747 254.689C457.863 248.786 460.449 242.723 462.874 236.762C467.473 225.425 470.092 217.36 481.109 218.767Z" fill="#455A64"/>
<path d="M514.377 287.487C514.377 296.502 514.994 348.92 514.994 348.92C515.223 351.517 517.717 356.127 517.912 365.474C518.198 379.019 517.66 418.841 517.66 418.841C517.66 418.841 509.194 421.942 503.268 419.471C503.268 419.471 496.965 368.116 495.26 354.709C493.785 343.006 490.776 316.282 490.776 316.282L486.6 351.746C487.215 357.402 487.376 363.098 487.081 368.78C486.646 374.992 481.269 409.735 481.269 409.735C481.269 409.735 472.312 411.611 465.86 409.438C465.86 409.438 466.203 353.519 466.1 347.822C465.974 341.335 468.8 285.52 468.8 285.52L514.377 287.487Z" fill="#FFC554"/>
<path d="M514.377 287.487C514.377 296.502 514.994 348.92 514.994 348.92C515.223 351.517 517.717 356.127 517.912 365.474C518.198 379.019 517.66 418.841 517.66 418.841C517.66 418.841 509.194 421.942 503.268 419.471C503.268 419.471 496.965 368.116 495.26 354.709C493.785 343.006 490.776 316.282 490.776 316.282L486.6 351.746C487.215 357.402 487.376 363.098 487.081 368.78C486.646 374.992 481.269 409.735 481.269 409.735C481.269 409.735 472.312 411.611 465.86 409.438C465.86 409.438 466.203 353.519 466.1 347.822C465.974 341.335 468.8 285.52 468.8 285.52L514.377 287.487Z" fill="#313131"/>
<path opacity="0.15" d="M490.776 316.282L490.032 310.756C487.367 310.299 480.686 305.894 476.751 302.096C479.509 306.491 483.293 310.15 487.779 312.758L487.218 347.868L490.776 316.282Z" fill="black"/>
<path d="M498.109 218.607C500.111 219.088 504.973 219.682 508.496 220.701C511.105 221.444 512.203 224.636 512.752 227.038C514.491 234.726 514.8 250.845 514.8 250.845L514.903 288.391C508.394 293.127 481.727 295.53 467.999 285.542C467.999 285.542 469.669 240.824 469.669 233.868C469.669 226.912 473.536 218.55 484.209 217.921L498.109 218.607Z" fill="#455A64"/>
<path d="M499.447 218.882C499.802 218.959 500.135 219.113 500.423 219.334C500.712 219.555 500.948 219.836 501.115 220.158C501.282 220.48 501.376 220.835 501.39 221.198C501.405 221.561 501.339 221.922 501.198 222.256C499.766 225.531 497.837 228.564 495.478 231.248C491.588 235.687 483.351 239.256 483.351 239.256C483.351 239.256 479.267 234.68 480.011 229.452C480.755 224.224 482.871 219.854 484.45 218.63C484.866 218.352 485.326 218.147 485.811 218.024V217.36C483.472 217.138 481.112 217.419 478.89 218.184C476.11 219.419 471.179 221.49 469.623 230.047C468.068 238.604 466.752 286.755 466.752 286.755C466.752 286.755 483.26 301.719 515.772 290.771V251.131C515.772 251.131 515.532 232.598 510.647 220.518L499.493 218.23L499.447 218.882Z" fill="#FFC554"/>
<path opacity="0.1" d="M515.738 269.492C511.7 272.398 506.277 276.139 502.342 278.644C501.198 279.376 500.168 280.006 499.345 280.486C498.338 281.069 496.782 280.269 495.638 280.04C492.583 279.411 490.639 279.903 487.767 280.04C485.479 280.143 484.267 279.514 484.061 280.04C483.882 280.661 483.944 281.326 484.234 281.903C484.525 282.48 485.023 282.926 485.628 283.152C486.952 283.69 488.334 284.074 489.746 284.296C487.433 285.395 484.956 286.114 482.413 286.423C477.231 287.075 475.057 288.711 478.444 292.692C483.456 294.186 488.67 294.889 493.899 294.775C495.043 294.283 496.324 293.631 497.674 292.99C499.573 291.995 503.486 289.787 507.158 287.796C508.874 286.858 510.59 285.966 511.917 285.291C513.244 284.616 514.434 284.055 515.738 283.438V269.492Z" fill="black"/>
<path opacity="0.1" d="M511.723 223.618C506.289 235.573 514.571 245.354 514.571 245.354L515.658 248.614C515.429 243.786 514.617 232.644 511.723 223.618Z" fill="black"/>
<path d="M467.393 266.552C470.058 271.345 482.436 274.217 493.121 274.377C503.806 274.537 512.684 271.483 515.738 268.657V264.001C512.684 266.861 503.806 269.938 493.121 269.721C482.436 269.504 470.241 266.644 467.576 261.85L467.393 266.552Z" fill="#FAFAFA"/>
<path d="M515.738 277.26C512.684 280.12 503.806 283.197 493.121 282.98C482.436 282.763 469.749 279.834 467.084 275.041L467.244 270.362C469.909 275.155 482.436 278.118 493.121 278.278C503.806 278.438 512.684 275.384 515.738 272.558V277.26Z" fill="#FAFAFA"/>
<path opacity="0.15" d="M483.351 239.233L482.608 293.745C481.773 293.573 480.983 293.379 480.205 293.184L483.351 239.233Z" fill="black"/>
<path d="M441.001 261.53L478.89 264.081L498.166 306.798L461.959 303.435L441.001 261.53Z" fill="#263238"/>
<path opacity="0.15" d="M476.064 291.079C476.615 292.498 477.532 293.745 478.721 294.694C479.911 295.642 481.331 296.258 482.837 296.479C486.225 296.771 489.629 296.139 492.687 294.649L491.073 291.079H476.064Z" fill="black"/>
<path opacity="0.15" d="M452.807 265.98L452.246 264.653C451.937 263.932 454.042 263.509 456.959 263.669L462.531 264.024C465.448 264.218 468.068 264.95 468.376 265.683L468.937 266.998L452.807 265.98Z" fill="black"/>
<path d="M449.306 261.267C449.112 260.809 449.947 260.523 451.171 260.615L453.379 260.798C453.379 260.798 452.177 257.938 457.051 258.086C461.924 258.235 463.595 261.404 463.595 261.404L465.963 261.61C466.987 261.602 467.98 261.959 468.765 262.617L469.189 263.429L449.672 262.113L449.306 261.267Z" fill="#FFC554"/>
<path opacity="0.3" d="M449.306 261.267C449.112 260.809 449.947 260.523 451.171 260.615L453.379 260.798C453.379 260.798 452.177 257.938 457.051 258.086C461.924 258.235 463.595 261.404 463.595 261.404L465.963 261.61C466.987 261.602 467.98 261.959 468.765 262.617L469.189 263.429L449.672 262.113L449.306 261.267Z" fill="black"/>
<path d="M468.171 265.854C467.919 265.248 466.066 264.642 463.766 264.344C463.766 264.264 463.709 264.195 463.686 264.127C463.423 263.498 463.629 263.04 465.002 263.143V262.594L451.491 261.793L452.143 262.262C453.916 262.342 454.671 262.434 455.152 263.555L455.255 263.806C453.161 263.806 451.823 264.23 452.029 264.825L452.589 266.152L468.731 267.17L468.171 265.854Z" fill="#FFC554"/>
<path opacity="0.4" d="M468.171 265.854C467.919 265.248 466.066 264.642 463.766 264.344C463.766 264.264 463.709 264.195 463.686 264.127C463.423 263.498 463.629 263.04 465.002 263.143V262.594L451.491 261.793L452.143 262.262C453.916 262.342 454.671 262.434 455.152 263.555L455.255 263.806C453.161 263.806 451.823 264.23 452.029 264.825L452.589 266.152L468.731 267.17L468.171 265.854Z" fill="black"/>
<path d="M500.282 277.432C499.138 278.175 498.109 278.804 497.285 279.285C496.279 279.857 494.723 279.067 493.579 278.839C490.524 278.209 488.579 278.701 485.708 278.839C483.42 278.953 482.207 278.324 482.001 278.839C481.82 279.459 481.879 280.126 482.17 280.704C482.461 281.281 482.962 281.727 483.569 281.95C484.891 282.495 486.274 282.879 487.687 283.094C485.373 284.194 482.897 284.913 480.354 285.222C474.543 285.954 472.494 287.853 477.859 293.07C481.223 296.33 485.924 296.822 495.614 291.789C497.513 290.793 501.427 288.574 505.099 286.584C504.964 284.81 504.467 283.083 503.638 281.509C502.81 279.935 501.667 278.547 500.282 277.432Z" fill="#FFC554"/>
<path opacity="0.7" d="M500.282 277.432C499.138 278.175 498.109 278.804 497.285 279.285C496.279 279.857 494.723 279.067 493.579 278.839C490.524 278.209 488.579 278.701 485.708 278.839C483.42 278.953 482.207 278.324 482.001 278.839C481.82 279.459 481.879 280.126 482.17 280.704C482.461 281.281 482.962 281.727 483.569 281.95C484.891 282.495 486.274 282.879 487.687 283.094C485.373 284.194 482.897 284.913 480.354 285.222C474.543 285.954 472.494 287.853 477.859 293.07C481.223 296.33 485.924 296.822 495.614 291.789C497.513 290.793 501.427 288.574 505.099 286.584C504.964 284.81 504.467 283.083 503.638 281.509C502.81 279.935 501.667 278.547 500.282 277.432Z" fill="white"/>
<path opacity="0.1" d="M500.282 277.432C499.138 278.175 498.109 278.804 497.285 279.285C496.279 279.857 494.723 279.067 493.579 278.839C490.524 278.209 488.579 278.701 485.708 278.839C483.42 278.953 482.207 278.324 482.001 278.839C481.82 279.459 481.879 280.126 482.17 280.704C482.461 281.281 482.962 281.727 483.569 281.95C484.891 282.495 486.274 282.879 487.687 283.094C485.373 284.194 482.897 284.913 480.354 285.222C474.543 285.954 472.494 287.853 477.859 293.07C481.223 296.33 485.924 296.822 495.614 291.789C497.513 290.793 501.427 288.574 505.099 286.584C504.964 284.81 504.467 283.083 503.638 281.509C502.81 279.935 501.667 278.547 500.282 277.432Z" fill="black"/>
<path d="M525.714 234.097C522.282 222.085 517.637 221.078 510.613 220.518C503.36 233.296 512.512 244.176 512.512 244.176L519.159 264.104C518.129 265.248 507.032 273.119 500.283 277.432C502.227 279.022 505.099 283.895 505.099 286.584C506.815 285.657 508.531 284.765 509.858 284.078C520.097 278.987 533.768 273.576 533.996 268.394C534.225 263.212 529.26 246.75 525.714 234.097Z" fill="#455A64"/>
<path d="M486.017 196.596C486.03 196.885 486.128 197.163 486.298 197.397C486.468 197.63 486.703 197.809 486.974 197.91C487.244 198.011 487.539 198.031 487.82 197.966C488.102 197.902 488.358 197.756 488.558 197.547C488.758 197.338 488.892 197.076 488.943 196.791C488.995 196.507 488.962 196.214 488.848 195.948C488.735 195.683 488.546 195.456 488.305 195.297C488.064 195.137 487.782 195.052 487.493 195.052C487.093 195.064 486.714 195.233 486.438 195.522C486.162 195.811 486.011 196.197 486.017 196.596Z" fill="#263238"/>
<path d="M487.493 191.597L490.547 193.336C490.769 192.919 490.819 192.432 490.687 191.979C490.554 191.526 490.249 191.142 489.838 190.911C489.64 190.799 489.421 190.728 489.195 190.701C488.968 190.675 488.739 190.695 488.52 190.759C488.302 190.823 488.098 190.93 487.922 191.074C487.745 191.218 487.599 191.396 487.493 191.597Z" fill="#263238"/>
<path d="M486.395 205.611L482.963 206.892C483.035 207.12 483.152 207.33 483.307 207.511C483.462 207.692 483.652 207.841 483.865 207.947C484.078 208.054 484.311 208.117 484.549 208.132C484.787 208.147 485.025 208.115 485.251 208.036C485.721 207.863 486.105 207.512 486.319 207.058C486.534 206.604 486.56 206.085 486.395 205.611Z" fill="#F28F8F"/>
<path d="M474.234 192.821L477.014 190.682C476.884 190.494 476.717 190.334 476.524 190.212C476.33 190.09 476.114 190.009 475.888 189.974C475.662 189.938 475.431 189.949 475.21 190.006C474.988 190.063 474.781 190.165 474.6 190.304C474.225 190.595 473.977 191.019 473.908 191.489C473.84 191.958 473.957 192.436 474.234 192.821Z" fill="#263238"/>
<path d="M474.863 196.597C474.874 196.877 474.968 197.148 475.132 197.376C475.296 197.604 475.524 197.778 475.787 197.877C476.05 197.976 476.336 197.996 476.61 197.934C476.883 197.871 477.133 197.729 477.327 197.526C477.52 197.323 477.65 197.067 477.7 196.791C477.749 196.514 477.716 196.229 477.604 195.972C477.493 195.714 477.308 195.495 477.073 195.341C476.838 195.188 476.562 195.107 476.282 195.109C476.091 195.114 475.903 195.156 475.728 195.233C475.554 195.31 475.396 195.421 475.264 195.559C475.132 195.697 475.029 195.86 474.96 196.038C474.892 196.216 474.858 196.406 474.863 196.597Z" fill="#263238"/>
<path d="M482.608 194.125L482.116 203.106L477.414 201.504L482.608 194.125Z" fill="#F28F8F"/>
<path d="M486.04 194.48L507.044 192.924C511.105 196.002 518.667 202.477 518.655 204.273V205.52C518.672 205.568 518.672 205.62 518.655 205.668C517.912 207.087 515.223 207.956 511.059 208.025C506.117 208.117 498.475 207.659 496.404 205.92C493.373 203.312 486.108 195.624 486.108 195.624L487.161 195.544L486.04 194.48Z" fill="#FFC554"/>
<path opacity="0.2" d="M486.04 194.48L507.044 192.924C511.105 196.002 518.667 202.477 518.655 204.273V205.52C518.672 205.568 518.672 205.62 518.655 205.668C517.912 207.087 515.223 207.956 511.059 208.025C506.117 208.117 498.475 207.659 496.404 205.92C493.373 203.312 486.108 195.624 486.108 195.624L487.161 195.544L486.04 194.48Z" fill="black"/>
<path d="M507.044 194.16C511.288 197.374 519.364 204.296 518.609 205.714C517.854 207.133 515.178 208.002 511.013 208.071C506.071 208.162 498.429 207.705 496.359 205.966C493.327 203.358 486.062 195.67 486.062 195.67L507.044 194.16Z" fill="#FFC554"/>
<path opacity="0.4" d="M507.044 194.16C511.288 197.374 519.364 204.296 518.609 205.714C517.854 207.133 515.178 208.002 511.013 208.071C506.071 208.162 498.429 207.705 496.359 205.966C493.327 203.358 486.062 195.67 486.062 195.67L507.044 194.16Z" fill="black"/>
<path d="M507.044 194.16C507.112 194.766 504.973 196.036 504.973 196.036L505.568 192.341L507.044 194.16Z" fill="#FFC554"/>
<path opacity="0.3" d="M507.044 194.16C507.112 194.766 504.973 196.036 504.973 196.036L505.568 192.341L507.044 194.16Z" fill="black"/>
<path d="M501.53 181.896C501.53 181.896 504.813 182.354 506.014 184.825C507.055 186.975 506.678 192.169 505.282 197.832C504.487 201.493 503.306 205.059 501.758 208.471C501.212 209.436 500.314 210.153 499.253 210.473L499.413 203.758L499.653 199.079C499.653 199.079 496.656 194.972 496.324 191.609C495.901 187.284 496.805 185.511 496.805 185.511L501.53 181.896Z" fill="#263238"/>
<path d="M496.221 188.382C496.2 191.706 494.865 194.886 492.507 197.229C490.15 199.572 486.961 200.886 483.637 200.886C480.484 200.624 477.546 199.184 475.407 196.853C473.268 194.521 472.086 191.469 472.096 188.305C472.106 185.142 473.307 182.097 475.461 179.78C477.615 177.462 480.563 176.04 483.717 175.798C487.041 175.82 490.221 177.155 492.564 179.512C494.907 181.87 496.221 185.059 496.221 188.382Z" fill="#263238"/>
<path d="M499.482 198.324C500.626 199.296 501.53 196.768 502.479 195.773C503.429 194.777 506.517 193.485 508.05 196.699C509.583 199.914 506.701 204.707 504.321 205.588C503.606 205.862 502.821 205.889 502.089 205.665C501.358 205.441 500.722 204.979 500.283 204.353V219.225C496.713 225.654 490.41 225.46 487.047 225.093C483.683 224.727 482.94 221.238 485.399 218.412V213.836C483.53 214.127 481.636 214.215 479.748 214.1C476.659 213.619 475.046 211.297 474.131 207.956C472.644 202.591 472.049 193.565 474.131 183.154C477.563 180.477 489.552 180.866 496.793 185.511C496.279 194.743 498.349 197.34 499.482 198.324Z" fill="#FFBE9D"/>
<path d="M475.435 178.59C476.845 177.059 478.565 175.847 480.48 175.032C482.029 174.369 483.692 174.015 485.376 173.991C487.561 173.991 489.746 173.671 491.931 173.739C495.73 173.854 500.305 175.398 502.021 179.093C502.811 180.786 502.937 182.525 501.392 183.669C500.007 184.605 498.419 185.197 496.759 185.397C493.956 185.889 491.165 186.541 488.328 186.884C485.295 187.4 482.193 187.358 479.176 186.758C477.764 186.429 476.421 185.856 475.206 185.065C474.591 184.642 474.017 184.164 473.49 183.635C473.296 183.429 472.758 183.006 472.689 182.72C472.621 182.434 472.998 181.885 473.135 181.576C473.761 180.48 474.535 179.475 475.435 178.59Z" fill="#263238"/>
<path d="M485.434 213.825C485.434 213.825 492.298 212.452 494.723 211.182C496.144 210.458 497.309 209.316 498.063 207.911C497.695 209.314 497.05 210.629 496.164 211.777C494.391 214.065 485.422 215.656 485.422 215.656L485.434 213.825Z" fill="#FFBE9D"/>
<path d="M486.68 196.036C486.674 196.22 486.705 196.404 486.771 196.577C486.837 196.749 486.937 196.907 487.065 197.04C487.193 197.174 487.347 197.28 487.516 197.353C487.686 197.426 487.869 197.464 488.053 197.466C488.426 197.457 488.779 197.302 489.038 197.034C489.297 196.767 489.441 196.408 489.438 196.036C489.455 195.844 489.432 195.651 489.371 195.469C489.31 195.286 489.211 195.119 489.081 194.977C488.952 194.835 488.794 194.721 488.618 194.644C488.442 194.566 488.251 194.526 488.059 194.526C487.867 194.526 487.676 194.566 487.5 194.644C487.324 194.721 487.166 194.835 487.037 194.977C486.907 195.119 486.808 195.286 486.747 195.469C486.686 195.651 486.663 195.844 486.68 196.036Z" fill="#263238"/>
<path d="M488.053 191.231L491.119 192.615C491.296 192.195 491.304 191.723 491.143 191.297C490.981 190.871 490.661 190.524 490.25 190.327C490.047 190.236 489.828 190.188 489.606 190.184C489.383 190.181 489.163 190.222 488.957 190.307C488.752 190.391 488.565 190.517 488.41 190.676C488.255 190.835 488.133 191.024 488.053 191.231Z" fill="#263238"/>
<path d="M486.543 205.428L482.139 207.064C482.23 207.362 482.381 207.639 482.583 207.877C482.785 208.114 483.033 208.308 483.313 208.447C483.593 208.585 483.898 208.664 484.209 208.68C484.521 208.696 484.832 208.649 485.125 208.54C485.715 208.302 486.191 207.846 486.455 207.267C486.719 206.688 486.751 206.03 486.543 205.428Z" fill="#B16668"/>
<path d="M485.125 208.54C484.732 208.677 484.309 208.709 483.901 208.631C483.921 208.081 484.155 207.56 484.551 207.178C484.948 206.796 485.478 206.583 486.028 206.584C486.23 206.584 486.431 206.615 486.623 206.675C486.559 207.09 486.387 207.481 486.124 207.808C485.861 208.136 485.516 208.388 485.125 208.54Z" fill="#F28F8F"/>
<path d="M475.149 192.055L478.341 190.911C478.275 190.699 478.167 190.502 478.023 190.333C477.879 190.165 477.701 190.027 477.502 189.93C477.303 189.832 477.085 189.776 476.864 189.766C476.642 189.756 476.42 189.791 476.213 189.87C475.794 190.034 475.452 190.35 475.255 190.755C475.058 191.16 475.02 191.623 475.149 192.055Z" fill="#263238"/>
<path d="M475.321 195.624C475.303 195.816 475.326 196.009 475.387 196.191C475.448 196.373 475.547 196.541 475.677 196.683C475.806 196.825 475.964 196.939 476.14 197.016C476.316 197.094 476.507 197.134 476.699 197.134C476.891 197.134 477.082 197.094 477.258 197.016C477.434 196.939 477.592 196.825 477.721 196.683C477.851 196.541 477.95 196.373 478.011 196.191C478.072 196.009 478.095 195.816 478.078 195.624C478.084 195.439 478.053 195.255 477.987 195.083C477.921 194.91 477.821 194.753 477.693 194.62C477.565 194.486 477.411 194.38 477.242 194.307C477.072 194.234 476.89 194.195 476.705 194.194C476.333 194.203 475.979 194.358 475.72 194.625C475.461 194.893 475.317 195.252 475.321 195.624Z" fill="#263238"/>
<path d="M483.111 192.055L482.608 203.106L477.014 201.63L483.111 192.055Z" fill="#FFBE9D"/>
<path d="M507.936 189.046C507.893 190.819 507.592 192.576 507.044 194.263C506.691 193.714 506.26 193.22 505.762 192.798C502.95 190.461 499.752 188.63 496.313 187.387C488.385 184.333 479.153 183.852 471.717 186.461C471.843 184.943 472.174 183.45 472.701 182.022C475.401 174.975 480.857 171.291 489.575 172.195C499.791 173.259 508.222 178.933 507.936 189.046Z" fill="#FFC554"/>
<path d="M489.232 182.823C486.863 182.022 480.812 181.553 479.039 182.113C478.22 181.439 477.503 180.649 476.911 179.768C476.087 178.453 476.362 176.794 477.14 176.462C477.917 176.13 477.975 177.137 480.983 178.636C480.586 177.672 480.498 176.609 480.732 175.593C481.224 174.368 482.265 176.565 484.495 177.972C486.726 179.379 488.946 180.111 489.232 182.823Z" fill="#263238"/>
<path d="M502.662 195.624C501.545 196.886 500.71 198.372 500.214 199.983C499.988 201.037 499.847 202.109 499.791 203.186L499.528 205.222C499.528 205.222 497.937 209.684 494.734 211.457C491.531 213.23 482.345 215.758 478.078 213.928C473.811 212.098 472.472 203.941 472.769 199.628C472.769 199.628 478.753 197.649 480.983 198.049C483.214 198.45 488.362 200.337 490.41 200.703C494.86 201.447 496.485 200.966 499.253 198.026C501.77 195.361 502.662 195.624 502.662 195.624Z" fill="#FFC554"/>
<path opacity="0.6" d="M502.662 195.624C501.545 196.886 500.71 198.372 500.214 199.983C499.988 201.037 499.847 202.109 499.791 203.186L499.528 205.222C499.528 205.222 497.937 209.684 494.734 211.457C491.531 213.23 482.345 215.758 478.078 213.928C473.811 212.098 472.472 203.941 472.769 199.628C472.769 199.628 478.753 197.649 480.983 198.049C483.214 198.45 488.362 200.337 490.41 200.703C494.86 201.447 496.485 200.966 499.253 198.026C501.77 195.361 502.662 195.624 502.662 195.624Z" fill="white"/>
<path opacity="0.1" d="M502.662 195.624C501.545 196.886 500.71 198.372 500.214 199.983C499.988 201.037 499.847 202.109 499.791 203.186L499.528 205.222C499.528 205.222 497.937 209.684 494.734 211.457C491.531 213.23 482.345 215.758 478.078 213.928C473.811 212.098 472.472 203.941 472.769 199.628C472.769 199.628 478.753 197.649 480.983 198.049C483.214 198.45 488.362 200.337 490.41 200.703C494.86 201.447 496.485 200.966 499.253 198.026C501.77 195.361 502.662 195.624 502.662 195.624Z" fill="black"/>
<path d="M472.724 200.612C472.724 200.269 472.724 199.926 472.724 199.617C472.724 199.617 478.707 197.638 480.938 198.038C483.168 198.438 488.316 200.326 490.364 200.692C494.814 201.436 496.439 200.955 499.207 198.015C501.724 195.361 502.639 195.636 502.639 195.636C501.522 196.897 500.687 198.383 500.191 199.994C499.965 201.049 499.824 202.12 499.768 203.197L499.505 205.234C499.102 206.626 498.408 207.917 497.468 209.02C498.481 207.292 498.948 205.298 498.807 203.3C498.786 201.635 499.204 199.993 500.019 198.541C499.551 199.335 498.93 200.029 498.191 200.58C497.453 201.132 496.612 201.532 495.718 201.756C491.771 202.808 488.705 201.298 483.34 199.674C479.256 198.461 477.334 199.251 472.724 200.612Z" fill="#FAFAFA"/>
<path d="M52.0062 479.119C42.3852 469.189 36.7224 428.783 46.1146 420.878H93.8995C103.28 428.76 97.629 469.177 88.0079 479.119L87.7448 479.393L87.413 479.714C87.1499 479.977 86.8525 480.24 86.5436 480.503L86.3148 480.686L85.5941 481.235C85.1962 481.529 84.7796 481.796 84.3471 482.036C76.4306 486.669 63.5835 486.669 55.667 482.036C55.2308 481.796 54.8105 481.529 54.4086 481.235C54.1684 481.064 53.9625 480.892 53.7337 480.709L53.4477 480.492C53.1502 480.24 52.8757 479.988 52.6126 479.737L52.235 479.359L52.0062 479.119Z" fill="#455A64"/>
<path d="M89.7467 417.709C100.649 424.07 100.649 434.388 89.7467 440.761C78.8444 447.133 61.1467 447.121 50.2673 440.761C39.3878 434.4 39.3649 424.07 50.2673 417.709C61.1696 411.348 78.8444 411.348 89.7467 417.709Z" fill="#455A64"/>
<g opacity="0.1">
<path opacity="0.1" d="M89.7467 417.709C100.649 424.07 100.649 434.388 89.7467 440.761C78.8444 447.133 61.1467 447.121 50.2673 440.761C39.3878 434.4 39.3649 424.07 50.2673 417.709C61.1696 411.348 78.8444 411.348 89.7467 417.709Z" fill="white"/>
</g>
<path d="M84.5074 420.775C92.5154 425.442 92.5154 433.027 84.5074 437.694C76.4994 442.362 63.515 442.373 55.507 437.694C47.499 433.016 47.499 425.442 55.507 420.775C63.515 416.107 76.4994 416.096 84.5074 420.775Z" fill="#263238"/>
<path d="M55.5068 428.806C63.5148 424.127 76.4992 424.127 84.5072 428.806C86.4487 429.869 88.0957 431.399 89.3005 433.256C88.0917 435.107 86.4454 436.631 84.5072 437.695C76.4992 442.373 63.5148 442.373 55.5068 437.695C53.5686 436.631 51.9222 435.107 50.7134 433.256C51.9182 431.399 53.5653 429.869 55.5068 428.806Z" fill="#F5F5F5"/>
<path d="M96.4848 342.456L77.3915 355.521L95.4553 348.657C95.2922 353.491 94.0739 358.231 91.886 362.545C91.886 362.545 79.9541 368.334 73.4676 374.443L89.3577 369.512C89.8557 372.28 89.687 375.127 88.8658 377.817C88.7629 378.184 88.6485 378.561 88.5341 378.961C87.6875 381.501 86.4863 386.306 84.45 392.003C82.7185 396.989 80.5199 401.8 77.8834 406.372C76.5686 408.615 75.1088 410.77 73.5133 412.824L73.2159 413.213C70.2644 411.245 67.2137 409.338 64.0639 407.493C62.1763 402.688 60.1514 391.248 59.7853 382.096C58.4011 346.632 86.3605 328.408 108.188 323.169C108.188 323.169 100.203 331.84 96.4848 342.456Z" fill="#FFC554"/>
<path opacity="0.3" d="M96.4848 342.456L77.3915 355.521L95.4553 348.657C95.2922 353.491 94.0739 358.231 91.886 362.545C91.886 362.545 79.9541 368.334 73.4676 374.443L89.3577 369.512C89.8557 372.28 89.687 375.127 88.8658 377.817C88.7629 378.184 88.6485 378.561 88.5341 378.961C87.6875 381.501 86.4863 386.306 84.45 392.003C82.7185 396.989 80.5199 401.8 77.8834 406.372C76.5686 408.615 75.1088 410.77 73.5133 412.824L73.2159 413.213C70.2644 411.245 67.2137 409.338 64.0639 407.493C62.1763 402.688 60.1514 391.248 59.7853 382.096C58.4011 346.632 86.3605 328.408 108.188 323.169C108.188 323.169 100.203 331.84 96.4848 342.456Z" fill="black"/>
<path d="M81.2242 342.857C79.2813 344.594 77.608 346.61 76.2592 348.84C74.9292 351.081 73.7594 353.413 72.7586 355.818C70.7878 360.634 69.353 365.652 68.48 370.782C66.6166 381.028 67.2046 391.569 70.196 401.544C70.2355 401.673 70.2221 401.812 70.1588 401.931C70.0955 402.05 69.9875 402.139 69.8586 402.179C69.7296 402.218 69.5903 402.205 69.4712 402.142C69.3521 402.078 69.2631 401.97 69.2236 401.841C66.3609 391.688 65.9453 381.001 68.011 370.656C68.9811 365.511 70.5157 360.489 72.587 355.681C73.6248 353.283 74.8329 350.962 76.202 348.737C77.5788 346.541 79.271 344.56 81.2242 342.857Z" fill="#FAFAFA"/>
<path d="M11.8516 360.841C12.2864 361.39 19.4592 370.473 29.9726 388.045L48.2766 391.568L34.6744 393.536L41.6071 405.296L59.5908 409.598L45.3823 411.463C45.3823 411.463 48.8944 425.374 58.8357 431.437C64.3269 434.789 67.0382 435.349 68.7656 433.805C69.9096 432.73 70.4473 426.117 71.6028 420.248C72.7582 414.38 73.1357 404.77 67.9191 393.01C66.5 389.861 64.6352 386.933 62.3821 384.315C49.4549 369.009 24.367 361.046 11.8516 360.841Z" fill="#FFC554"/>
<path opacity="0.15" d="M11.8516 360.841C12.2864 361.39 19.4592 370.473 29.9726 388.045L48.2766 391.568L34.6744 393.536L41.6071 405.296L59.5908 409.598L45.3823 411.463C45.3823 411.463 48.8944 425.374 58.8357 431.437C64.3269 434.789 67.0382 435.349 68.7656 433.805C69.9096 432.73 70.4473 426.117 71.6028 420.248C72.7582 414.38 73.1357 404.77 67.9191 393.01C66.5 389.861 64.6352 386.933 62.3821 384.315C49.4549 369.009 24.367 361.046 11.8516 360.841Z" fill="black"/>
<path opacity="0.1" d="M64.0638 399.061C66.0343 403.972 67.2977 409.137 67.8161 414.402C68.1898 421.052 68.1593 427.719 67.7246 434.365C68.1064 434.235 68.4598 434.033 68.7656 433.77C69.9096 432.695 70.4473 426.083 71.6028 420.214C72.7582 414.345 73.1357 404.736 67.9191 392.975C66.5 389.827 64.6352 386.898 62.3821 384.281C49.4549 368.951 24.367 360.989 11.8516 360.783C30.9679 364.524 51.2281 377.943 60.9636 393.113C62.1678 395.002 63.2051 396.992 64.0638 399.061Z" fill="black"/>
<path d="M125.966 373.894C124.419 373.801 122.868 373.801 121.321 373.894C115.231 374.253 109.21 375.367 103.395 377.211C101.244 377.886 99.0703 378.653 96.931 379.499C95.8671 379.945 94.8032 380.414 93.7507 380.906C88.551 383.267 83.7802 386.476 79.6337 390.402C77.7054 392.286 76.015 394.399 74.6001 396.694C74.4285 396.991 74.2341 397.288 74.0625 397.586C73.6163 398.364 73.2159 399.142 72.8384 399.874C69.3091 406.498 67.5219 413.911 67.6446 421.415C67.5417 426.701 69.006 432.855 69.9326 433.874C70.0583 434.017 70.2049 434.14 70.3673 434.24C71.8202 435.281 74.2455 434.857 78.8558 432.604C88.0879 428.096 92.2978 415.604 92.2978 415.604L79.9655 412.801L96.1302 410.513L103.189 400.743L91.4055 397.929L107.776 396.339C113.375 388.509 119.438 381.022 125.932 373.917L125.966 373.894Z" fill="#FFC554"/>
<path opacity="0.05" d="M121.321 373.859C115.231 374.218 109.21 375.333 103.395 377.177C101.244 377.852 99.0703 378.618 96.931 379.465C95.8671 379.911 94.8032 380.38 93.7507 380.872C88.551 383.232 83.7802 386.441 79.6337 390.367C77.7054 392.251 76.015 394.364 74.6001 396.659C74.4285 396.957 74.234 397.254 74.0624 397.551C73.6163 398.329 73.2159 399.107 72.8384 399.839C69.3091 406.464 67.5219 413.876 67.6446 421.381C67.5417 426.666 69.006 432.821 69.9326 433.839C70.0583 433.982 70.2049 434.106 70.3673 434.205C70.6612 434.408 70.9914 434.551 71.3397 434.628C70.6877 426.392 75.8585 405.88 82.4137 397.689C89.2776 389.166 104.985 377.097 125.886 373.836C124.365 373.752 122.841 373.76 121.321 373.859Z" fill="black"/>
<path d="M489.06 146.432L492.675 139.637L489.769 131.24V126.103L498.67 131.24V136.376L494.849 143C494.788 143.102 494.695 143.182 494.586 143.229L489.06 146.432Z" fill="#FFC554"/>
<path opacity="0.2" d="M489.06 146.432L492.675 139.637L489.769 131.24V126.103L498.67 131.24V136.376L494.849 143C494.788 143.102 494.695 143.182 494.586 143.229L489.06 146.432Z" fill="black"/>
<path d="M473.09 88.385C473.148 87.4664 473.421 86.5742 473.886 85.7796C474.35 84.9851 474.995 84.3104 475.767 83.8091L477.929 82.5621C478.756 82.1393 479.671 81.9189 480.6 81.9189C481.529 81.9189 482.444 82.1393 483.271 82.5621L510.338 98.1091C511.11 98.6102 511.753 99.2854 512.216 100.08C512.678 100.875 512.949 101.767 513.004 102.685V139.293C512.948 140.211 512.677 141.103 512.214 141.898C511.751 142.692 511.109 143.368 510.338 143.869L508.165 145.128C507.336 145.545 506.421 145.763 505.494 145.763C504.566 145.763 503.651 145.545 502.822 145.128L493.064 139.648L489.243 146.26C489.191 146.358 489.11 146.437 489.013 146.489C488.915 146.541 488.804 146.563 488.694 146.552C488.584 146.541 488.48 146.498 488.394 146.427C488.309 146.357 488.246 146.263 488.214 146.157L484.175 134.512L475.732 129.661C474.963 129.158 474.322 128.482 473.859 127.688C473.396 126.894 473.125 126.002 473.067 125.085L473.09 88.385Z" fill="#FFC554"/>
<path opacity="0.2" d="M513.004 139.385C512.949 140.303 512.679 141.195 512.216 141.99C511.753 142.785 511.11 143.46 510.338 143.961L508.165 145.219C507.412 145.598 506.587 145.812 505.745 145.847C504.902 145.883 504.062 145.739 503.28 145.425C504.538 145.906 505.499 145.197 505.499 143.675V107.067C505.469 106.136 505.197 105.229 504.71 104.436L512.226 100.1C512.705 100.897 512.973 101.802 513.004 102.731V139.385Z" fill="black"/>
<path opacity="0.5" d="M473.181 87.6302C473.49 86.4862 474.519 86.1315 475.755 86.8408L502.833 102.445C503.623 102.932 504.271 103.619 504.71 104.436L512.214 100.1C511.772 99.285 511.125 98.5991 510.338 98.1092L483.271 82.5165C482.444 82.0992 481.531 81.8818 480.605 81.8818C479.68 81.8818 478.767 82.0992 477.94 82.5165L475.755 83.7749C475.087 84.209 474.514 84.7748 474.071 85.4376C473.629 86.1004 473.326 86.8464 473.181 87.6302Z" fill="white"/>
<path d="M485.514 128.243H485.182C484.783 128.188 484.404 128.033 484.08 127.793C483.756 127.553 483.498 127.236 483.329 126.87L478.524 116.665C478.368 116.377 478.272 116.059 478.243 115.733C478.214 115.406 478.251 115.077 478.354 114.765C478.456 114.453 478.621 114.166 478.838 113.92C479.055 113.674 479.32 113.475 479.616 113.335C479.913 113.195 480.235 113.117 480.563 113.105C480.89 113.094 481.217 113.149 481.523 113.268C481.828 113.387 482.107 113.567 482.34 113.797C482.574 114.027 482.759 114.302 482.882 114.606L486.109 121.47L497.182 108.577C497.387 108.33 497.639 108.126 497.923 107.978C498.207 107.829 498.518 107.739 498.838 107.712C499.157 107.685 499.479 107.721 499.784 107.82C500.089 107.919 500.372 108.077 500.615 108.286C500.858 108.495 501.057 108.751 501.2 109.037C501.344 109.324 501.429 109.637 501.45 109.957C501.471 110.277 501.429 110.598 501.324 110.901C501.22 111.204 501.057 111.484 500.843 111.723L487.344 127.407C487.118 127.672 486.838 127.884 486.521 128.028C486.205 128.172 485.861 128.245 485.514 128.243Z" fill="#FAFAFA"/>
</svg>
