<svg width="1000" height="1000" viewBox="0 0 1000 1000" fill="none" xmlns="http://www.w3.org/2000/svg">
<g clip-path="url(#clip0_239_237)">
<mask id="mask0_239_237" style="mask-type:luminance" maskUnits="userSpaceOnUse" x="0" y="0" width="1000" height="1000">
<path d="M1000 0H0V1000H1000V0Z" fill="white"/>
</mask>
<g mask="url(#mask0_239_237)">
<path d="M1000 764.8H0V765.3H1000V764.8Z" fill="#EBEBEB"/>
<path d="M275.32 778.42H209.08V778.92H275.32V778.42Z" fill="#EBEBEB"/>
<path d="M423.78 796.74H342.28V797.24H423.78V796.74Z" fill="#EBEBEB"/>
<path d="M207.08 790.48H104.92V790.98H207.08V790.48Z" fill="#EBEBEB"/>
<path d="M899.799 781.78H713.52V782.28H899.799V781.78Z" fill="#EBEBEB"/>
<path d="M695.72 781.78H683.06V782.28H695.72V781.78Z" fill="#EBEBEB"/>
<path d="M638.88 790.22H554.42V790.72H638.88V790.22Z" fill="#EBEBEB"/>
<path d="M141.34 342.2H314.86C314.86 342.2 305.519 320.481 274.32 327.24C274.32 327.24 267.759 302.54 243.96 305.96C243.96 305.96 224.259 284.601 195.519 292.88C166.78 301.16 169.26 327.24 169.26 327.24C169.26 327.24 148 321.679 141.34 342.2Z" fill="#F3F3F3"/>
<path d="M605.78 209.88H432.28C432.28 209.88 441.599 188.139 472.799 194.901C472.799 194.901 479.36 170.2 503.179 173.62C503.179 173.62 522.88 152.28 551.599 160.56C580.32 168.84 577.88 194.901 577.88 194.901C577.88 194.901 599.219 189.361 605.78 209.88Z" fill="#F3F3F3"/>
<path d="M733.74 204.219H866.479C866.479 204.219 861.401 186 842.2 192C842.2 192 846.2 167.48 832.04 164.64C817.88 161.8 813.38 180.46 813.38 180.46C810.139 176.787 805.939 174.093 801.249 172.68C796.561 171.266 791.57 171.19 786.84 172.46C782.188 173.671 777.951 176.113 774.571 179.531C771.193 182.949 768.798 187.216 767.639 191.88C767.639 191.88 744 178.34 733.74 204.219Z" fill="#F3F3F3"/>
<path d="M253.401 444.34H91.9199V764.281H253.401V444.34Z" fill="#E6E6E6"/>
<path d="M224.04 444.34H91.9199V764.281H224.04V444.34Z" fill="#F0F0F0"/>
<path d="M255.3 444.34H88.4404V449.561H255.3V444.34Z" fill="#E0E0E0"/>
<path d="M255.3 433.9H88.4404V439.12H255.3V433.9Z" fill="#E0E0E0"/>
<path d="M251.8 439.12H91.9199V444.34H251.8V439.12Z" fill="#F0F0F0"/>
<path d="M129.28 463.16H104.46V488.36H129.28V463.16Z" fill="#E6E6E6"/>
<path d="M129.26 463.16H106.64V488.36H129.26V463.16Z" fill="#F5F5F5"/>
<path d="M166.86 463.16H142.04V488.36H166.86V463.16Z" fill="#E6E6E6"/>
<path d="M166.84 463.16H144.22V488.36H166.84V463.16Z" fill="#F5F5F5"/>
<path d="M204.441 463.16H179.62V488.36H204.441V463.16Z" fill="#E6E6E6"/>
<path d="M204.42 463.16H181.8V488.36H204.42V463.16Z" fill="#F5F5F5"/>
<path d="M129.28 500.26H104.46V525.46H129.28V500.26Z" fill="#E6E6E6"/>
<path d="M129.26 500.26H106.64V525.46H129.26V500.26Z" fill="#F5F5F5"/>
<path d="M166.86 500.26H142.04V525.46H166.86V500.26Z" fill="#E6E6E6"/>
<path d="M166.84 500.26H144.22V525.46H166.84V500.26Z" fill="#F5F5F5"/>
<path d="M204.441 500.26H179.62V525.46H204.441V500.26Z" fill="#E6E6E6"/>
<path d="M204.42 500.26H181.8V525.46H204.42V500.26Z" fill="#F5F5F5"/>
<path d="M129.28 568.2H104.46V593.401H129.28V568.2Z" fill="#E6E6E6"/>
<path d="M129.26 568.2H106.64V593.401H129.26V568.2Z" fill="#F5F5F5"/>
<path d="M166.86 568.2H142.04V593.401H166.86V568.2Z" fill="#E6E6E6"/>
<path d="M166.84 568.2H144.22V593.401H166.84V568.2Z" fill="#F5F5F5"/>
<path d="M204.441 568.2H179.62V593.401H204.441V568.2Z" fill="#E6E6E6"/>
<path d="M204.42 568.2H181.8V593.401H204.42V568.2Z" fill="#F5F5F5"/>
<path d="M129.28 605.3H104.46V630.5H129.28V605.3Z" fill="#E6E6E6"/>
<path d="M129.26 605.3H106.64V630.5H129.26V605.3Z" fill="#F5F5F5"/>
<path d="M166.86 605.3H142.04V630.5H166.86V605.3Z" fill="#E6E6E6"/>
<path d="M166.84 605.3H144.22V630.5H166.84V605.3Z" fill="#F5F5F5"/>
<path d="M204.441 605.3H179.62V630.5H204.441V605.3Z" fill="#E6E6E6"/>
<path d="M204.42 605.3H181.8V630.5H204.42V605.3Z" fill="#F5F5F5"/>
<path d="M129.28 680.8H104.46V706H129.28V680.8Z" fill="#E6E6E6"/>
<path d="M129.26 680.8H106.64V706H129.26V680.8Z" fill="#F5F5F5"/>
<path d="M166.86 680.8H142.04V706H166.86V680.8Z" fill="#E6E6E6"/>
<path d="M166.84 680.8H144.22V706H166.84V680.8Z" fill="#F5F5F5"/>
<path d="M204.441 680.8H179.62V706H204.441V680.8Z" fill="#E6E6E6"/>
<path d="M204.42 680.8H181.8V706H204.42V680.8Z" fill="#F5F5F5"/>
<path d="M129.28 717.9H104.46V743.099H129.28V717.9Z" fill="#E6E6E6"/>
<path d="M129.26 717.9H106.64V743.099H129.26V717.9Z" fill="#F5F5F5"/>
<path d="M166.86 717.9H142.04V743.099H166.86V717.9Z" fill="#E6E6E6"/>
<path d="M166.84 717.9H144.22V743.099H166.84V717.9Z" fill="#F5F5F5"/>
<path d="M204.441 717.9H179.62V743.099H204.441V717.9Z" fill="#E6E6E6"/>
<path d="M204.42 717.9H181.8V743.099H204.42V717.9Z" fill="#F5F5F5"/>
<path d="M253.401 543.18H91.9199V545.521H253.401V543.18Z" fill="#E0E0E0"/>
<path d="M253.401 659.3H91.9199V661.64H253.401V659.3Z" fill="#E0E0E0"/>
<path d="M888.4 378.32H728.86V766.54H888.4V378.32Z" fill="#E0E0E0"/>
<path d="M842.96 378.32H728.86V766.54H842.96V378.32Z" fill="#F0F0F0"/>
<path d="M783.08 410.22H740.62V430.84H783.08V410.22Z" fill="#E6E6E6"/>
<path d="M783.08 410.22H743.44V430.84H783.08V410.22Z" fill="#F5F5F5"/>
<path d="M832.2 410.22H789.74V430.84H832.2V410.22Z" fill="#E6E6E6"/>
<path d="M832.201 410.22H792.56V430.84H832.201V410.22Z" fill="#F5F5F5"/>
<path d="M783.08 449.021H740.62V469.639H783.08V449.021Z" fill="#E6E6E6"/>
<path d="M783.08 449.021H743.44V469.639H783.08V449.021Z" fill="#F5F5F5"/>
<path d="M832.2 449.021H789.74V469.639H832.2V449.021Z" fill="#E6E6E6"/>
<path d="M832.201 449.021H792.56V469.639H832.201V449.021Z" fill="#F5F5F5"/>
<path d="M783.08 498.602H740.62V519.22H783.08V498.602Z" fill="#E6E6E6"/>
<path d="M783.08 498.602H743.44V519.22H783.08V498.602Z" fill="#F5F5F5"/>
<path d="M832.2 498.602H789.74V519.22H832.2V498.602Z" fill="#E6E6E6"/>
<path d="M832.201 498.602H792.56V519.22H832.201V498.602Z" fill="#F5F5F5"/>
<path d="M783.08 527.1H740.62V547.72H783.08V527.1Z" fill="#E6E6E6"/>
<path d="M783.08 527.1H743.44V547.72H783.08V527.1Z" fill="#F5F5F5"/>
<path d="M832.2 527.1H789.74V547.72H832.2V527.1Z" fill="#E6E6E6"/>
<path d="M832.201 527.1H792.56V547.72H832.201V527.1Z" fill="#F5F5F5"/>
<path d="M783.08 573.92H740.62V594.54H783.08V573.92Z" fill="#E6E6E6"/>
<path d="M783.08 573.92H743.44V594.54H783.08V573.92Z" fill="#F5F5F5"/>
<path d="M832.2 573.92H789.74V594.54H832.2V573.92Z" fill="#E6E6E6"/>
<path d="M832.201 573.92H792.56V594.54H832.201V573.92Z" fill="#F5F5F5"/>
<path d="M783.08 602.4H740.62V623.021H783.08V602.4Z" fill="#E6E6E6"/>
<path d="M783.08 602.4H743.44V623.021H783.08V602.4Z" fill="#F5F5F5"/>
<path d="M832.2 602.4H789.74V623.021H832.2V602.4Z" fill="#E6E6E6"/>
<path d="M832.201 602.4H792.56V623.021H832.201V602.4Z" fill="#F5F5F5"/>
<path d="M783.08 653.36H740.62V673.981H783.08V653.36Z" fill="#E6E6E6"/>
<path d="M783.08 653.36H743.44V673.981H783.08V653.36Z" fill="#F5F5F5"/>
<path d="M832.2 653.36H789.74V673.981H832.2V653.36Z" fill="#E6E6E6"/>
<path d="M832.201 653.36H792.56V673.981H832.201V653.36Z" fill="#F5F5F5"/>
<path d="M783.08 690.98H740.62V711.599H783.08V690.98Z" fill="#E6E6E6"/>
<path d="M783.08 690.98H743.44V711.599H783.08V690.98Z" fill="#F5F5F5"/>
<path d="M832.2 690.98H789.74V711.599H832.2V690.98Z" fill="#E6E6E6"/>
<path d="M832.201 690.98H792.56V711.599H832.201V690.98Z" fill="#F5F5F5"/>
<path opacity="0.05" d="M888.4 482.34H728.86V485.88H888.4V482.34Z" fill="black"/>
<path opacity="0.05" d="M888.4 559.04H728.86V562.58H888.4V559.04Z" fill="black"/>
<path opacity="0.05" d="M888.4 636.42H728.86V639.96H888.4V636.42Z" fill="black"/>
<path d="M888.401 366.84H721.34V379.241H888.401V366.84Z" fill="#E0E0E0"/>
<path opacity="0.05" d="M888.401 366.84H850.22V379.241H888.401V366.84Z" fill="black"/>
<path d="M501.639 291.16H321.28V759.92H501.639V291.16Z" fill="#E6E6E6"/>
<path d="M434.901 291.16H254.52V759.92H434.901V291.16Z" fill="#F0F0F0"/>
<path d="M419.16 322.98H270.26V346.86H419.16V322.98Z" fill="#E6E6E6"/>
<path d="M419.16 322.98H276.04V346.86H419.16V322.98Z" fill="#F5F5F5"/>
<path d="M419.16 363.18H270.26V387.061H419.16V363.18Z" fill="#E6E6E6"/>
<path d="M419.16 363.18H276.04V387.061H419.16V363.18Z" fill="#F5F5F5"/>
<path d="M419.16 404.94H270.26V428.82H419.16V404.94Z" fill="#E6E6E6"/>
<path d="M419.16 404.94H276.04V428.82H419.16V404.94Z" fill="#F5F5F5"/>
<path d="M419.16 446.72H270.26V470.6H419.16V446.72Z" fill="#E6E6E6"/>
<path d="M419.16 446.72H276.04V470.6H419.16V446.72Z" fill="#F5F5F5"/>
<path d="M419.16 488.48H270.26V512.36H419.16V488.48Z" fill="#E6E6E6"/>
<path d="M419.16 488.48H276.04V512.36H419.16V488.48Z" fill="#F5F5F5"/>
<path d="M419.16 530.26H270.26V554.141H419.16V530.26Z" fill="#E6E6E6"/>
<path d="M419.16 530.26H276.04V554.141H419.16V530.26Z" fill="#F5F5F5"/>
<path d="M419.16 576.3H270.26V600.18H419.16V576.3Z" fill="#E6E6E6"/>
<path d="M419.16 576.3H276.04V600.18H419.16V576.3Z" fill="#F5F5F5"/>
<path d="M419.16 622.32H270.26V646.2H419.16V622.32Z" fill="#E6E6E6"/>
<path d="M419.16 622.32H276.04V646.2H419.16V622.32Z" fill="#F5F5F5"/>
<path d="M419.16 668.36H270.26V692.24H419.16V668.36Z" fill="#E6E6E6"/>
<path d="M419.16 668.36H276.04V692.24H419.16V668.36Z" fill="#F5F5F5"/>
<path d="M419.16 714.4H270.26V738.28H419.16V714.4Z" fill="#E6E6E6"/>
<path d="M419.16 714.4H276.04V738.28H419.16V714.4Z" fill="#F5F5F5"/>
<path d="M506.34 286.44H249.42V297.879H506.34V286.44Z" fill="#F5F5F5"/>
<path d="M506.34 265.8H249.42V277.241H506.34V265.8Z" fill="#F5F5F5"/>
<path d="M497.8 275H254.52V286.441H497.8V275Z" fill="#F0F0F0"/>
<path d="M501.66 322.98H451.4V346.86H501.66V322.98Z" fill="#E0E0E0"/>
<path d="M501.66 362.28H451.4V386.16H501.66V362.28Z" fill="#E0E0E0"/>
<path d="M501.66 401.58H451.4V425.46H501.66V401.58Z" fill="#E0E0E0"/>
<path d="M501.66 446.7H451.4V470.58H501.66V446.7Z" fill="#E0E0E0"/>
<path d="M501.66 488.48H451.4V512.36H501.66V488.48Z" fill="#E0E0E0"/>
<path d="M501.66 530.26H451.4V554.141H501.66V530.26Z" fill="#E0E0E0"/>
<path d="M501.66 576.28H451.4V600.16H501.66V576.28Z" fill="#E0E0E0"/>
<path d="M501.66 622.32H451.4V646.2H501.66V622.32Z" fill="#E0E0E0"/>
<path d="M501.66 668.36H451.4V692.24H501.66V668.36Z" fill="#E0E0E0"/>
<path d="M501.66 714.4H451.4V738.28H501.66V714.4Z" fill="#E0E0E0"/>
<path d="M733.5 454.98H713.66V486.021H733.5V454.98Z" fill="#E0E0E0"/>
<path d="M733.5 505.78H713.66V536.82H733.5V505.78Z" fill="#E0E0E0"/>
<path d="M733.5 555.16H713.66V586.2H733.5V555.16Z" fill="#E0E0E0"/>
<path d="M733.5 607.36H713.66V638.4H733.5V607.36Z" fill="#E0E0E0"/>
<path d="M733.5 658.16H713.66V689.2H733.5V658.16Z" fill="#E0E0E0"/>
<path d="M733.5 423.78H524.72V741.299H733.5V423.78Z" fill="#E6E6E6"/>
<path d="M698.24 423.78H524.74V741.299H698.24V423.78Z" fill="#F0F0F0"/>
<path d="M681.42 455H540.34V486.04H681.42V455Z" fill="#EBEBEB"/>
<path d="M681.42 505.78H540.34V536.82H681.42V505.78Z" fill="#EBEBEB"/>
<path d="M681.42 556.58H540.34V587.62H681.42V556.58Z" fill="#EBEBEB"/>
<path d="M681.42 607.36H540.34V638.4H681.42V607.36Z" fill="#EBEBEB"/>
<path d="M681.42 658.16H540.34V689.2H681.42V658.16Z" fill="#EBEBEB"/>
<path d="M681.42 455H545.54V486.04H681.42V455Z" fill="#F5F5F5"/>
<path d="M681.42 505.78H545.54V536.82H681.42V505.78Z" fill="#F5F5F5"/>
<path d="M681.42 556.58H545.54V587.62H681.42V556.58Z" fill="#F5F5F5"/>
<path d="M681.42 607.36H545.54V638.4H681.42V607.36Z" fill="#F5F5F5"/>
<path d="M681.42 658.16H545.54V689.2H681.42V658.16Z" fill="#F5F5F5"/>
<path d="M500 855.12C714.165 855.12 887.78 844.984 887.78 832.481C887.78 819.976 714.165 809.84 500 809.84C285.834 809.84 112.22 819.976 112.22 832.481C112.22 844.984 285.834 855.12 500 855.12Z" fill="#F5F5F5"/>
<path d="M279.46 832.48H271.46" stroke="#FFC554" stroke-width="1.74216" stroke-linecap="round" stroke-linejoin="round"/>
<path d="M256.34 832.48H52.04" stroke="#FFC554" stroke-width="1.74216" stroke-linecap="round" stroke-linejoin="round" stroke-dasharray="13.19 13.19"/>
<path d="M44.4795 832.48H36.4795" stroke="#FFC554" stroke-width="1.74216" stroke-linecap="round" stroke-linejoin="round"/>
<path d="M755.512 353.742L524.744 357.568L527.507 524.166L758.275 520.34L755.512 353.742Z" fill="#FFC554"/>
<path opacity="0.3" d="M664.038 355.238L524.518 357.552L527.279 524.148L666.8 521.834L664.038 355.238Z" fill="white"/>
<path opacity="0.7" d="M713.04 467.439C730.282 467.439 744.259 452.335 744.259 433.7C744.259 415.066 730.282 399.96 713.04 399.96C695.798 399.96 681.82 415.066 681.82 433.7C681.82 452.335 695.798 467.439 713.04 467.439Z" fill="#1F1F1F"/>
<path opacity="0.3" d="M685.063 366.464L644.882 367.269L645.107 378.467L685.286 377.664L685.063 366.464Z" fill="white"/>
<path opacity="0.3" d="M686.256 496.012L646.08 496.677L646.266 507.876L686.441 507.21L686.256 496.012Z" fill="white"/>
<path opacity="0.89" d="M713.04 460.379C726.063 460.379 736.62 448.436 736.62 433.701C736.62 418.966 726.063 407.021 713.04 407.021C700.017 407.021 689.46 418.966 689.46 433.701C689.46 448.436 700.017 460.379 713.04 460.379Z" stroke="white" stroke-width="1.74216" stroke-miterlimit="10"/>
<path opacity="0.89" d="M714.02 411.08V415.559" stroke="white" stroke-width="1.74216" stroke-linecap="round" stroke-linejoin="round"/>
<path opacity="0.89" d="M715.04 452.12V456.601" stroke="white" stroke-width="1.74216" stroke-linecap="round" stroke-linejoin="round"/>
<path opacity="0.89" d="M693.16 432.82H697.66" stroke="white" stroke-width="1.74216" stroke-linecap="round" stroke-linejoin="round"/>
<path opacity="0.89" d="M729.28 432.84H733.78" stroke="white" stroke-width="1.74216" stroke-linecap="round" stroke-linejoin="round"/>
<path opacity="0.89" d="M714 432.82L714.019 419.021" stroke="white" stroke-width="0.87108" stroke-linecap="round" stroke-linejoin="round"/>
<path d="M714.88 433.72L724.639 443.481" stroke="white" stroke-width="0.87108" stroke-linecap="round" stroke-linejoin="round"/>
<path opacity="0.89" d="M716.179 432.84C716.179 433.27 716.052 433.692 715.811 434.051C715.573 434.409 715.231 434.688 714.834 434.854C714.435 435.019 713.998 435.061 713.575 434.977C713.151 434.894 712.763 434.686 712.458 434.382C712.153 434.077 711.946 433.688 711.862 433.265C711.777 432.841 711.82 432.404 711.986 432.005C712.151 431.606 712.43 431.267 712.789 431.026C713.148 430.787 713.568 430.66 714 430.66C714.287 430.657 714.571 430.711 714.838 430.821C715.102 430.929 715.345 431.089 715.547 431.293C715.75 431.495 715.911 431.737 716.019 432.002C716.127 432.268 716.183 432.552 716.179 432.84Z" fill="white"/>
<path d="M453.76 726.3C457.241 728.96 527.099 721.441 509.04 597.5C509.04 597.5 542.18 605.92 545.741 605.361C545.741 605.361 594.361 679.901 558.96 716.821C523.559 753.74 470.8 756 470.8 756L453.76 726.3Z" fill="#FFC554"/>
<path opacity="0.3" d="M453.76 726.3C457.241 728.96 527.099 721.441 509.04 597.5C509.04 597.5 542.18 605.92 545.741 605.361C545.741 605.361 594.361 679.901 558.96 716.821C523.559 753.74 470.8 756 470.8 756L453.76 726.3Z" fill="black"/>
<path d="M531.18 616.681C531.361 616.681 511.661 617.061 505.059 608.86C498.46 600.66 494 586 506 576C518 566 588.46 522.801 621.64 519.4C654.821 516 690.34 537.4 690.34 537.4L646.901 569.521L553.361 592.16L531.18 616.681Z" fill="#263238"/>
<path d="M467.479 706.781L469.299 724.7L490.821 722.88L487.581 704.46L467.479 706.781Z" fill="#FFBE9D"/>
<path d="M463.3 723.401L494.52 722.96L496.741 738.72C496.741 738.72 467.5 739.12 455.481 737.519C443.46 735.92 445.34 729.66 445.34 729.66C445.34 729.66 459.42 730 463.3 723.401Z" fill="#263238"/>
<path d="M735.756 768.759C740.416 722.948 712.759 682.61 673.979 678.664C635.198 674.718 599.982 708.657 595.32 754.47C590.658 800.284 618.317 840.622 657.097 844.568C695.878 848.514 731.094 814.573 735.756 768.759Z" fill="#263238"/>
<path d="M616.479 506.58C616.479 506.58 619.719 580.92 576.479 583.04C533.24 585.16 486.78 580.42 486.78 580.42L500.401 714L459.86 716.5C459.86 716.5 430.759 603.179 426.179 574.7C421.599 546.219 425.58 526.08 455.639 513.439C485.7 500.799 616.479 506.58 616.479 506.58Z" fill="#FFC554"/>
<path d="M374.5 742.44L428.36 586.001L500.36 506.521C500.36 506.521 437.521 506.76 407.32 524.121C377.12 541.479 376 562.341 370.46 587.162C364.92 611.98 342.7 729.461 342.7 729.461L374.5 742.44Z" fill="#FFC554"/>
<path opacity="0.78" d="M616.481 506.58C616.481 506.58 549.559 503.601 500.481 506.58C500.481 506.58 437.639 506.82 407.441 524.179C377.24 541.54 376 562.339 370.46 587.16C364.92 611.981 342.7 729.46 342.7 729.46L374.5 742.441L428.36 586C437.42 629.36 459.86 716.42 459.86 716.42L500.401 714L486.759 580.5C486.759 580.5 533.2 585.24 576.46 583.12C619.719 581 616.481 506.58 616.481 506.58Z" fill="#1F1F1F"/>
<path d="M506 386L481.14 389.019C481.14 389.019 476.821 434.72 472.8 443.599C472.8 443.599 396.34 454.099 365.019 453.2L349.121 464L348.56 482.779L364.14 483.239L369.161 471.34C369.161 471.34 379.68 470.88 382.121 464.96C382.121 464.96 463.361 484.58 493.281 462.179C493.321 462.2 511.361 435.7 506 386Z" fill="#FFBE9D"/>
<path d="M577.24 263.62C577.24 263.62 585.019 273.62 582.059 282.28C581.244 284.749 579.803 286.967 577.879 288.719C575.956 290.47 573.615 291.697 571.08 292.28C571.08 292.28 569.62 306.139 561.44 306.54C553.259 306.941 556 276 556 276L577.24 263.62Z" fill="#263238"/>
<path d="M514.26 506.92L508.8 417.58L474.92 395.059C474.92 395.059 486 356 507.2 349.38C528.401 342.76 574.639 327.58 602.679 335.12C630.72 342.66 627.5 375.74 622.679 400.281L617.281 401.559C617.281 401.559 616.441 498.26 616.401 506.58L514.26 506.92Z" fill="#263238"/>
<path d="M575.22 340.64C564.12 351.38 541.481 357.781 535.22 352.439C528.96 347.1 536.861 342.201 542.741 336.16C545.92 332.84 545.821 326.62 545.08 321.66C544.69 319.16 544.115 316.694 543.361 314.281C522.58 313.14 513.96 303.42 513.1 286.281C512.241 269.14 520 249.241 520 249.241L534.68 236.72C534.68 236.72 554.68 239.72 570.68 250.72C580.201 257.201 577.38 269.96 573.441 279.38C571.77 283.39 569.763 287.251 567.441 290.92C565.201 314.38 575.22 340.64 575.22 340.64Z" fill="#FFBE9D"/>
<path d="M524.66 291C524.66 291 532.66 291.38 536.16 286.42" stroke="#263238" stroke-width="1.74216" stroke-linecap="round" stroke-linejoin="round"/>
<path d="M537.4 270.76C537.4 272.281 536.48 273.481 535.4 273.46C534.32 273.441 533.54 272.181 533.58 270.661C533.62 269.141 534.499 267.941 535.58 267.96C536.66 267.981 537.459 269.241 537.4 270.76Z" fill="#263238"/>
<path d="M519.16 271.24C519.16 272.759 518.24 273.96 517.16 273.939C516.08 273.92 515.299 272.66 515.339 271.139C515.379 269.62 516.259 268.42 517.339 268.439C518.42 268.46 519.219 269.74 519.16 271.24Z" fill="#263238"/>
<path d="M525.5 283.66L524.679 271.4L518.82 283.04C519.735 283.817 520.867 284.294 522.062 284.404C523.258 284.515 524.458 284.256 525.5 283.66Z" fill="#ED847E"/>
<path d="M536.44 261.16C537.974 260.739 539.608 260.875 541.05 261.545C542.494 262.216 543.651 263.376 544.32 264.821" stroke="#263238" stroke-width="1.74216" stroke-linecap="round" stroke-linejoin="round"/>
<path d="M513.521 263.42C513.521 263.42 517.2 259.42 521.521 260.441" stroke="#263238" stroke-width="1.74216" stroke-linecap="round" stroke-linejoin="round"/>
<path d="M573.58 279.38C550.7 280.2 547.861 254.259 547.861 254.259C536.54 260.259 520.08 249.259 520.08 249.259L534.76 236.7C534.76 236.7 554.76 239.74 570.76 250.7C580.34 257.2 577.519 270 573.58 279.38Z" fill="#263238"/>
<path d="M512.719 256.86C512.719 256.86 500.879 248.981 506.099 243.299C511.32 237.62 543.299 248.42 567.2 261.66C567.2 261.66 512.46 225.04 497.58 236.62C485.28 246.2 512.559 259.5 511.74 259.481L512.719 256.86Z" fill="#FFC554"/>
<path d="M579.5 254.179C579.467 258.327 578.681 262.434 577.18 266.299L523.42 240.299C525.648 237.728 528.315 235.575 531.3 233.939C534.481 232.12 537.941 230.836 541.54 230.139C545.357 229.411 549.263 229.275 553.12 229.74C572.781 232 579.599 247.12 579.5 254.179Z" fill="#FFC554"/>
<path d="M341.42 518.939C341.42 518.939 280.7 602.939 330.7 732.241" stroke="#263238" stroke-width="1.74216" stroke-linecap="round" stroke-linejoin="round"/>
<path d="M421.56 562.58C421.56 562.58 421.56 562.74 421.56 563.059C421.56 563.38 421.56 563.559 421.56 563.92V564.12C420.838 572.211 419.5 580.233 417.56 588.12C414.8 599.78 411.14 610.88 408.121 619.8C395.321 657.7 396.8 698.54 396.8 698.54C392.56 693.259 384.8 689.5 375.1 686.86C339.781 677.16 279.821 682.36 279.821 682.36C268.06 641.099 272.26 576.521 283.96 540.36C295.661 504.2 328.1 512.36 328.1 512.36C328.1 512.36 362.34 513.36 366.64 512.901C374.511 511.946 382.476 512.106 390.3 513.38C416.741 518.219 423.1 539.12 421.56 562.58Z" fill="#FFC554"/>
<path d="M685.18 720C625.18 774.161 509.361 779.84 423.18 773.84L374.901 686.981L355.34 651.8L418.18 567.1L421.5 562.64C421.5 562.64 421.5 562.8 421.5 563.12C421.5 563.441 421.5 563.621 421.5 563.981V564.18C420.639 579.281 415.08 700.46 459.5 730.18L459.861 730.441C465.871 734.324 472.845 736.459 480 736.6C561.5 738.96 559.22 632.6 538.5 609.821L679.92 581.401C679.92 581.401 707.84 651.701 685.18 720Z" fill="#FFC554"/>
<path d="M527.88 586.76C527.88 586.76 514.62 597.76 521.46 612.519C528.3 627.28 594.24 598.62 620.2 593.401C646.16 588.179 676.2 583.08 689.12 580.42C702.04 577.76 700.92 540.7 690.361 537.42C679.8 534.139 576.36 552.42 559.2 562.46C547.869 569.341 537.36 577.495 527.88 586.76Z" fill="#263238"/>
<path d="M561.08 288.54C559.819 287.181 559.054 285.436 558.913 283.587C558.77 281.737 559.26 279.896 560.3 278.361C563.5 273.561 569.96 265.941 576.16 271.641C584.84 279.64 570.019 294.18 563.88 290.661C562.852 290.089 561.909 289.375 561.08 288.54Z" fill="#FFBE9D"/>
<path opacity="0.2" d="M512.72 256.86C512.72 256.86 500.88 248.981 506.1 243.299C508.42 240.78 515.361 241.299 524.741 243.981C530.772 245.604 536.68 247.655 542.42 250.12C550.661 253.7 559.42 258.28 567.201 261.66C567.201 261.66 512.46 225.04 497.58 236.62C485.281 246.2 510.861 258.62 511.76 259.46L512.201 257.839L512.72 256.86Z" fill="black"/>
<path d="M518.339 253.44C518.339 253.44 506.339 255.44 514.62 268.36L518.339 253.44Z" fill="#263238"/>
<path d="M529.839 245.559C529.839 245.559 511.74 239.2 506.7 242.8C501.66 246.401 506.941 253.26 512.7 256.8L517.32 257.399L520.04 249.2L527.08 248.34L529.839 245.559Z" fill="#263238"/>
<path opacity="0.3" d="M554.5 235.779L550.16 242.2L531.3 234C534.483 232.179 537.941 230.895 541.54 230.2L554.5 235.779Z" fill="white"/>
<path opacity="0.1" d="M550.299 312.521C549.052 315.841 547.261 318.93 545 321.662C544.61 319.162 544.035 316.695 543.28 314.282C545.705 314.111 548.082 313.515 550.299 312.521Z" fill="black"/>
<path opacity="0.2" d="M456 493.321C452.5 496.981 407.24 487.602 399.339 491.8C396 493.561 394.54 499.8 391.179 506.64C381.74 521.64 368.46 524 367.639 524.121C383.48 512.121 387.9 483.241 380.04 464.981C372.179 446.72 344.04 451.46 342.44 452C347.238 449.891 352.4 448.73 357.639 448.581C372.86 447.781 391.42 452.061 396.62 461.701C407.179 481.361 452.46 476.941 456.62 482.102C460.78 487.26 459.5 489.661 456 493.321Z" fill="black"/>
<path d="M371 488.4C370.2 502.259 364.2 513.601 356.839 516.4C355.566 516.89 354.202 517.102 352.839 517.02C343.759 516.5 337.16 502.879 338.08 486.62C339 470.36 347.12 457.601 356.2 458.12C359.9 458.32 363.16 460.7 365.7 464.521C369.44 470 371.54 478.759 371 488.4Z" fill="#F5F5F5"/>
<path d="M371 488.4C370.2 502.261 364.2 513.601 356.839 516.4C348.441 515.921 342.339 503.341 343.2 488.4C344.059 473.461 351.54 461.601 359.941 462.082C362.104 462.244 364.153 463.123 365.759 464.582C369.441 470.001 371.54 478.761 371 488.4Z" fill="#FFD583"/>
<path d="M695.139 684.861C679.679 674 619.861 663.34 619.861 663.34C583.519 663.34 551.62 696.04 547.219 739.46C543.62 774.781 559.219 806.84 584.361 821.46C584.361 821.46 586.46 822.34 589.981 823.72C603.3 828.981 637.099 841.72 657.08 844.521" fill="#263238"/>
<path opacity="0.3" d="M735.756 768.759C740.416 722.948 712.759 682.61 673.979 678.664C635.198 674.718 599.982 708.657 595.32 754.47C590.658 800.284 618.317 840.622 657.097 844.568C695.878 848.514 731.094 814.573 735.756 768.759Z" fill="black"/>
<path d="M424.836 766.094C429.498 720.281 401.84 679.946 363.061 676C324.28 672.054 289.064 705.992 284.402 751.805C279.74 797.617 307.399 837.956 346.179 841.902C384.96 845.848 420.176 811.908 424.836 766.094Z" fill="#263238"/>
<path d="M397.76 691.28L362 841.419C356.782 842.264 351.477 842.419 346.22 841.879H345.821C338.96 840.12 342.019 842.019 335.139 839.74C317.639 833.959 292.22 823.74 292.22 823.74C265.281 810.639 250.059 778.78 253.76 742.379C258.24 698.28 289.88 665.339 327.12 668.04C327.12 668.04 344.8 671.299 363 676.04C371 678.04 379 680.419 385.58 682.9C389.937 685.235 394.021 688.045 397.76 691.28Z" fill="#263238"/>
<path opacity="0.3" d="M424.839 766C420.839 805.5 394.099 836.16 361.96 841.339C356.744 842.186 351.437 842.339 346.179 841.799H345.78C338.456 841.01 331.339 838.888 324.78 835.54C297.759 821.839 280.66 788.561 284.4 751.759C289.059 705.981 324.2 672.08 362.96 675.96H363.059C370.93 676.754 378.568 679.085 385.54 682.82C389.897 685.162 393.982 687.979 397.719 691.219C416.86 707.86 428 735.78 424.839 766Z" fill="black"/>
<path d="M415.099 713.399C413.929 711.53 412.589 709.768 411.099 708.139C402.16 695.939 381.719 691.38 368.34 692.46C358.084 693.46 348.235 696.993 339.679 702.739C329.92 709.059 322.941 718.739 313.26 725.38C294.901 738.059 267.04 737.7 248.599 724.639C247.561 723.901 246.571 723.092 245.639 722.219C243.761 720.263 242.507 717.791 242.04 715.12C241.334 711.784 241.591 708.315 242.78 705.12C246.78 693.88 260.12 684 268.54 677.979C285.611 665.935 305.69 658.866 326.54 657.559C386 653.46 411.361 704.239 415.099 713.399Z" fill="#FFC554"/>
<path opacity="0.3" d="M410.981 715C398.2 696.559 381.8 691.38 368.42 692.46C358.164 693.461 348.315 696.993 339.759 702.74C330 709.059 323.021 718.74 313.34 725.38C294.981 738.059 267.12 737.7 248.679 724.639C247.639 723.9 246.651 723.092 245.719 722.219C243.841 720.263 242.587 717.792 242.12 715.12C241.415 711.784 241.671 708.315 242.861 705.12C249.04 712.259 267.04 729.46 291.42 721.12C321.82 710.62 329.24 679.42 361.74 679.7C387.559 680 403.46 700 410.981 715Z" fill="black"/>
<g opacity="0.3">
<path opacity="0.3" d="M277.24 672.48C285.913 666.317 295.669 661.844 306 659.299C316.34 656.668 327.049 655.789 337.679 656.7C348.294 657.721 358.688 660.365 368.5 664.54L372.139 666.139L375.7 667.919C378.099 669.04 380.36 670.44 382.679 671.719C385 672.999 387.139 674.58 389.36 676C391.58 677.419 393.66 679.08 395.78 680.66C387.057 674.815 377.747 669.902 368 666C358.272 662.097 348.022 659.651 337.58 658.74C327.16 657.743 316.646 658.418 306.441 660.74C301.315 661.876 296.292 663.428 291.42 665.379C286.475 667.284 281.726 669.662 277.24 672.48Z" fill="black"/>
</g>
<g opacity="0.3">
<path opacity="0.3" d="M342 658.179C339.507 649.84 338.008 641.232 337.54 632.54C336.879 623.88 336.74 615.179 336.919 606.54C337.099 597.899 337.7 589.179 338.5 580.54L339.959 567.62C340.599 563.32 341.16 559.019 341.959 554.74L340.139 580.74L339.419 593.7C339.299 598.019 339.04 602.34 339.019 606.66C338.679 615.299 338.839 623.939 339.16 632.66C339.299 636.979 339.639 641.28 340.08 645.58C340.432 649.819 341.073 654.028 342 658.179Z" fill="black"/>
</g>
<path opacity="0.3" d="M459.401 730C417.639 703.139 415.981 633.84 417.401 588.12C417.66 580.26 417.981 573.12 418.22 566.981C418.659 560.835 418.659 554.666 418.22 548.521C414 517.12 390 513.34 390 513.34H390.099C416.679 518.22 423.04 539.12 421.5 562.58C421.5 562.58 421.5 562.741 421.5 563.059C421.5 563.38 421.5 563.559 421.5 563.92V564.12C420.599 579.22 415.04 700.401 459.401 730Z" fill="black"/>
<path d="M420.559 475.859C417.808 480.938 416.711 486.748 417.42 492.48L455.76 496.8C457.719 494.532 459.169 491.868 460.007 488.99C460.847 486.112 461.056 483.086 460.62 480.121C460.62 480.121 422.639 476.3 420.559 475.859Z" fill="#263238"/>
<path d="M304.14 474.439C304.14 474.439 300.321 466.319 304.901 461.18C294.66 460.26 288.321 459.18 281.72 458.22C280.741 461.201 280.26 464.059 283.72 468.6C287.18 473.14 304.14 474.439 304.14 474.439Z" fill="#263238"/>
<path d="M304.296 474.168C302.348 465.753 303.789 462.418 304.831 461.723L328.332 464.168C330.949 461.29 337.066 455.11 341.667 452.173L335 466.668C327 474.668 329.444 497.223 331.667 507.5C339 522.168 358.611 524.168 367.5 523.333C358.832 524.668 348.888 523.333 345 522.5C324.332 519.168 323.611 490.493 325.832 476.574L304.296 474.168Z" fill="#C4C4C4"/>
<path d="M282.839 525.26C276.2 536.08 270.521 553.399 270.021 581.059" stroke="#FFC554" stroke-width="1.74216" stroke-linecap="round" stroke-linejoin="round"/>
<path d="M304.7 507.42C299.869 508.54 295.429 510.937 291.84 514.359" stroke="#FFC554" stroke-width="1.74216" stroke-linecap="round" stroke-linejoin="round"/>
<path d="M602.96 403.16L577.72 406.24C577.72 406.24 573.321 452.62 569.241 461.639C569.241 461.639 491.62 472.32 459.8 471.38L443.661 482.34L443.1 501.42L458.92 501.88L464.019 489.88C464.019 489.88 474.701 489.42 477.161 483.401C477.161 483.401 559.64 503.401 590.021 480.601C590 480.521 608.34 453.62 602.96 403.16Z" fill="#FFBE9D"/>
<path opacity="0.2" d="M397.44 760C396.719 785.16 380.24 805.08 360.62 804.519C357.982 804.44 355.371 803.989 352.86 803.179C337.139 798.179 325.82 779.639 326.44 757.939C327.059 736.939 338.639 719.58 353.86 714.759C356.9 713.782 360.087 713.329 363.28 713.42C382.9 714 398.179 734.92 397.44 760Z" fill="#FAFAFA"/>
<path d="M379.379 760C378.759 781.479 367.379 799.139 352.86 803.24C337.139 798.24 325.82 779.7 326.44 758C327.059 737 338.639 719.639 353.86 714.818C368.98 718.919 380 737.759 379.379 760Z" fill="#263238"/>
<path opacity="0.2" d="M705.599 762C704.86 787.16 688.38 807.099 668.78 806.521C666.143 806.451 663.528 806 661.021 805.179C645.28 800.179 633.96 781.66 634.599 759.94C635.2 738.96 646.78 721.58 662 716.759C665.042 715.782 668.226 715.329 671.42 715.42C691.04 716 706.32 736.879 705.599 762Z" fill="#FAFAFA"/>
<path d="M687.54 762C686.9 783.46 675.54 801.12 661.021 805.22C645.28 800.22 633.96 781.699 634.599 759.979C635.2 739 646.78 721.62 662 716.8C677.139 720.899 688.179 739.739 687.54 762Z" fill="#263238"/>
<path d="M736.521 695.72C736.861 720.46 699.201 736.84 636.18 747.161C619.194 750.147 601.833 750.35 584.781 747.76C556.781 743.14 543.1 731.3 543.1 731.3C543.1 731.3 550.22 645.8 620.68 634.96C668.68 627.6 704.8 646.96 723.121 667.821C731.741 677.62 736.42 687.8 736.521 695.72Z" fill="#FFC554"/>
<path opacity="0.3" d="M736.521 695.719C736.86 720.459 699.2 736.839 636.179 747.16C619.193 750.146 601.833 750.348 584.78 747.759C587.799 724.54 601.36 663.639 660.299 657.318C687.04 654.439 707.679 659.839 723.12 667.818C731.74 677.62 736.42 687.799 736.521 695.719Z" fill="black"/>
<g opacity="0.3">
<path opacity="0.3" d="M547.18 731.679C548.478 720.042 551.253 708.615 555.441 697.679C559.558 686.631 565.242 676.232 572.321 666.8C575.896 662.111 579.915 657.779 584.321 653.859C588.685 649.878 593.499 646.415 598.661 643.54C608.932 637.747 620.316 634.195 632.059 633.12C626.305 634.084 620.645 635.542 615.14 637.479C612.361 638.319 609.741 639.62 607.14 640.719C604.532 641.969 601.988 643.35 599.521 644.859C597 646.3 594.68 648.04 592.3 649.66C589.92 651.279 587.72 653.2 585.62 655.219C581.349 659.101 577.458 663.38 574 668C566.974 677.249 561.248 687.416 556.981 698.219C554.765 703.601 552.854 709.103 551.26 714.7C549.563 720.273 548.201 725.942 547.18 731.679Z" fill="black"/>
</g>
<path d="M452.62 703.439L456.78 717.559L500.401 713.92L500.979 694.18L452.62 703.439Z" fill="#FFC554"/>
<path d="M739.167 805C742.223 790 754.5 759.668 779.167 758.333" stroke="#FFC554" stroke-width="0.87108" stroke-dasharray="13.94 13.94"/>
<path d="M748.333 802.5C759.723 790.835 787.333 768.002 806.668 770" stroke="#FFC554" stroke-width="0.87108" stroke-dasharray="13.94 13.94"/>
<path d="M712.32 607.139L808.299 603.24" stroke="#FFC554" stroke-width="1.74216" stroke-linecap="round" stroke-linejoin="round"/>
<path d="M840.02 585.76L854.281 585.18" stroke="#FFC554" stroke-width="1.74216" stroke-linecap="round" stroke-linejoin="round"/>
<path d="M758.32 589.08L829.08 586.2" stroke="#FFC554" stroke-width="1.74216" stroke-linecap="round" stroke-linejoin="round"/>
<path d="M807.84 638.759L867.139 636.36" stroke="#FFC554" stroke-width="1.74216" stroke-linecap="round" stroke-linejoin="round"/>
<path d="M771.18 640.259L797.021 639.2" stroke="#FFC554" stroke-width="1.74216" stroke-linecap="round" stroke-linejoin="round"/>
</g>
<path fill-rule="evenodd" clip-rule="evenodd" d="M608.54 606.347L608.121 606.671L607.962 607.132L607.803 607.593L607.969 608.255L608.135 608.916L608.674 609.255L609.212 609.594L609.814 609.604L610.416 609.615L610.96 609.31L611.503 609.006L611.771 608.455L612.038 607.903L611.889 607.311L611.74 606.72L611.419 606.355L611.097 605.99L610.524 605.875L609.951 605.76L609.456 605.891L608.96 606.022L608.54 606.347ZM567.323 616.969L566.736 617.247L566.24 617.684L565.743 618.121L565.506 618.553L565.269 618.984L565.134 619.73L565 620.477L565.175 621.185L565.35 621.893L564.756 622.043L564.162 622.192L564.518 623.607L564.874 625.022L565.468 624.872L566.062 624.723L567.055 628.669L568.048 632.616L569.681 632.205L571.315 631.794L570.322 627.847L569.328 623.901L570.219 623.677L571.11 623.452L570.754 622.038L570.398 620.623L569.505 620.848L568.611 621.072L568.6 620.64L568.59 620.207L568.822 619.871L569.055 619.536L569.558 619.409L570.061 619.282L569.686 617.793L569.311 616.304L568.61 616.498L567.909 616.691L567.323 616.969ZM603.098 611.278L603.696 613.654L603.228 613.373L602.759 613.092L601.976 612.947L601.192 612.801L600.078 613.078L598.963 613.355L598.224 613.983L597.485 614.611L597.16 615.247L596.835 615.882L596.655 616.684L596.475 617.486L596.543 618.488L596.61 619.49L596.957 620.431L597.304 621.373L597.788 622.075L598.273 622.778L599.162 623.378L600.051 623.978L600.884 624.138L601.717 624.299L602.74 624.043L603.762 623.787L604.294 623.47L604.826 623.152L605.29 622.494L605.755 621.836L605.908 622.443L606.061 623.051L607.768 622.621L609.476 622.191L607.696 615.117L605.916 608.043L604.208 608.472L602.5 608.902L603.098 611.278ZM575.237 619.46L574.543 619.841L574.028 620.302L573.512 620.763L573.059 621.563L572.606 622.363L572.457 623.043L572.309 623.722L572.376 624.723L572.444 625.724L572.752 626.518L573.061 627.311L573.541 628.008L574.022 628.705L574.804 629.245L575.587 629.785L576.616 630.033L577.644 630.28L579.426 629.832L581.208 629.384L581.945 628.758L582.681 628.132L583.153 627.345L583.625 626.558L583.804 625.642L583.983 624.726L583.552 623.014L583.121 621.301L582.463 620.541L581.804 619.781L580.923 619.314L580.041 618.847L579.114 618.739L578.187 618.632L577.059 618.855L575.931 619.079L575.237 619.46ZM587.199 616.488L586.437 616.91L585.761 617.672L585.084 618.435L584.783 619.281L584.481 620.128L584.45 621.011L584.418 621.894L584.802 623.159L585.187 624.423L585.784 625.168L586.381 625.912L587.163 626.381L587.944 626.85L588.882 627.033L589.82 627.217L591.53 626.786L593.24 626.356L594.109 625.617L594.978 624.878L595.404 624.047L595.829 623.217L595.931 622.297L596.033 621.378L595.871 620.389L595.708 619.401L595.219 618.494L594.73 617.588L594.028 616.965L593.325 616.342L592.833 616.138L592.34 615.935L591.675 615.784L591.01 615.633L590.182 615.664L589.353 615.695L588.657 615.88L587.961 616.066L587.199 616.488ZM617.877 608.679L617.355 608.96L616.742 609.499L616.128 610.038L615.723 610.748L615.318 611.457L615.126 612.455L614.935 613.454L615.348 615.092L615.761 616.73L616.354 617.459L616.948 618.188L617.543 618.599L618.138 619.011L619.198 619.279L620.257 619.546L621.756 619.229L623.255 618.911L624.014 618.384L624.773 617.856L625.307 617.078L625.84 616.3L626.038 615.593L626.236 614.886L626.251 614.525L626.267 614.165L624.486 614.613L622.706 615.061L622.381 615.607L622.056 616.152L621.562 616.38L621.069 616.607L620.472 616.517L619.874 616.426L619.45 616.009L619.026 615.591L618.96 615.331L618.894 615.07L622.55 614.15L626.206 613.23L625.796 611.86L625.387 610.489L624.77 609.757L624.153 609.025L623.405 608.626L622.657 608.228L621.752 608.059L620.847 607.891L619.623 608.144L618.399 608.397L617.877 608.679ZM610.206 616.307L611.555 621.668L613.262 621.238L614.97 620.809L613.621 615.447L612.272 610.086L610.564 610.515L608.856 610.945L610.206 616.307ZM638.371 603.803L637.67 604.272L637.167 604.826L636.663 605.379L636.365 606.124L636.067 606.869L635.977 607.446L635.886 608.023L635.95 608.936L636.013 609.849L636.445 610.843L636.876 611.837L637.428 612.472L637.979 613.108L638.636 613.502L639.293 613.896L640.168 614.103L641.044 614.309L642.544 613.995L644.044 613.68L644.85 613.12L645.657 612.56L646.339 611.415L647.022 610.27L647.079 609.179L647.136 608.088L646.904 607.163L646.671 606.238L646.236 605.502L645.8 604.767L645.323 604.318L644.846 603.868L644.227 603.518L643.609 603.167L642.615 602.982L641.621 602.796L640.346 603.065L639.072 603.334L638.371 603.803ZM651.469 600.463L650.944 600.83L650.543 601.335L650.143 601.839L650.01 601.31L649.876 600.781L648.763 601.061L647.649 601.342L648.98 606.629L650.31 611.916L651.414 611.638L652.518 611.36L651.693 607.886L650.869 604.411L651.039 603.831L651.208 603.25L651.519 602.868L651.83 602.485L652.38 602.207L652.93 601.929L653.545 601.914L654.16 601.899L654.613 602.083L655.066 602.267L655.51 602.778L655.955 603.29L656.855 606.666L657.754 610.042L658.858 609.765L659.962 609.487L659.069 605.94L658.176 602.392L657.773 601.712L657.371 601.031L656.756 600.521L656.141 600.012L655.189 599.809L654.238 599.605L653.116 599.851L651.994 600.097L651.469 600.463ZM662.852 597.578L662.278 597.94L661.717 598.493L661.157 599.045L660.869 599.635L660.581 600.225L660.402 601.141L660.224 602.057L660.637 603.699L661.05 605.34L661.788 606.211L662.526 607.083L663.355 607.511L664.183 607.939L665.102 608.044L666.02 608.15L667.49 607.717L668.96 607.284L669.613 606.705L670.267 606.126L670.656 605.392L671.044 604.658L671.162 604.152L671.281 603.645L671.242 603.489L671.202 603.333L670.005 603.634L668.807 603.935L668.542 604.483L668.276 605.031L667.911 605.354L667.545 605.678L666.715 605.887L665.885 606.096L665.221 605.943L664.558 605.79L664.056 605.326L663.554 604.862L663.351 604.477L663.149 604.092L667.188 603.076L671.228 602.059L670.828 600.695L670.428 599.331L669.832 598.597L669.235 597.862L668.53 597.439L667.824 597.015L666.898 596.842L665.973 596.669L664.699 596.942L663.426 597.216L662.852 597.578ZM626.213 607.761L626.455 608.725L628.767 608.187L631.079 607.649L629.621 611.579L628.163 615.509L628.397 616.44L628.631 617.371L632.343 616.437L636.055 615.503L635.831 614.613L635.607 613.723L633.236 614.276L630.864 614.83L632.356 610.779L633.847 606.728L633.621 605.829L633.394 604.929L629.682 605.863L625.97 606.797L626.213 607.761ZM642.082 605.078L642.626 605.181L643.174 605.585L643.722 605.99L644.034 606.515L644.346 607.04L644.528 607.767L644.711 608.495L644.696 609.103L644.682 609.712L644.308 610.419L643.934 611.126L643.341 611.543L642.748 611.959L641.989 612.074L641.229 612.189L640.553 611.95L639.876 611.712L639.344 611.083L638.811 610.454L638.514 609.262L638.217 608.07L638.39 607.363L638.563 606.655L638.961 606.154L639.36 605.652L639.91 605.368L640.46 605.084L640.999 605.03L641.538 604.976L642.082 605.078ZM665.841 598.83L666.431 598.845L667.002 599.123L667.572 599.402L667.897 599.837L668.222 600.272L668.279 600.5L668.336 600.728L665.515 601.438L662.694 602.148L662.674 602.069L662.654 601.99L662.745 601.38L662.836 600.771L663.073 600.332L663.31 599.893L663.835 599.468L664.36 599.044L664.805 598.929L665.25 598.815L665.841 598.83ZM621.478 611.158L622.11 611.537L622.189 611.85L622.268 612.163L620.337 612.648L618.407 613.134L618.366 612.971L618.325 612.808L618.463 612.338L618.601 611.868L618.93 611.527L619.259 611.186L620.052 610.982L620.846 610.779L621.478 611.158ZM578.619 621.919L579.193 622.131L579.598 622.581L580.004 623.031L580.208 623.842L580.412 624.654L580.272 625.337L580.131 626.019L579.726 626.421L579.321 626.823L578.692 626.982L578.063 627.14L577.619 626.985L577.175 626.831L576.836 626.518L576.497 626.205L576.2 625.558L575.903 624.912L575.883 624.178L575.863 623.444L576.156 622.918L576.449 622.393L576.715 622.194L576.98 621.995L577.513 621.851L578.045 621.707L578.619 621.919ZM590.621 618.832L591.196 618.977L591.587 619.407L591.978 619.838L592.226 620.433L592.474 621.028L592.463 621.729L592.452 622.429L592.074 623.023L591.696 623.618L591.192 623.85L590.689 624.083L589.971 623.959L589.253 623.835L588.767 623.254L588.282 622.674L588.101 621.938L587.919 621.202L588.046 620.501L588.172 619.799L588.588 619.375L589.003 618.951L589.525 618.819L590.047 618.687L590.621 618.832ZM603.118 615.833L603.583 616.027L604.006 616.458L604.43 616.889L604.654 617.783L604.879 618.676L604.687 619.279L604.496 619.881L604.102 620.271L603.708 620.66L603.024 620.832L602.341 621.004L601.893 620.817L601.445 620.629L601.072 620.325L600.698 620.02L600.419 619.47L600.139 618.919L600.085 618.33L600.031 617.741L600.229 617.201L600.427 616.662L600.875 616.246L601.323 615.83L601.988 615.734L602.653 615.639L603.118 615.833ZM673.791 603.394L673.529 603.698L673.488 604.272L673.447 604.845L673.742 605.243L674.037 605.641L674.401 605.781L674.765 605.92L675.293 605.787L675.821 605.654L676.093 605.339L676.365 605.025L676.125 604.073L675.886 603.122L675.497 602.974L675.109 602.825L674.581 602.958L674.053 603.09L673.791 603.394Z" fill="#263238"/>
</g>
<defs>
<clipPath id="clip0_239_237">
<rect width="1000" height="1000" fill="white"/>
</clipPath>
</defs>
</svg>
